<?xml version="1.0" encoding="utf-8"?>
<!-- Generator: Adobe Illustrator 16.0.0, SVG Export Plug-In . SVG Version: 6.00 Build 0)  -->
<!DOCTYPE svg PUBLIC "-//W3C//DTD SVG 1.1//EN" "http://www.w3.org/Graphics/SVG/1.1/DTD/svg11.dtd">
<svg version="1.1" id="Layer_1" xmlns="http://www.w3.org/2000/svg" xmlns:xlink="http://www.w3.org/1999/xlink" x="0px" y="0px"
	 width="63px" height="40px" viewBox="0 0 63 40" enable-background="new 0 0 63 40" xml:space="preserve">
<g opacity="0.8">
	<path d="M2.148,2.196H5.46v16.319H2.148V2.196z"/>
	<path d="M22.092,2.196v16.319h-5.448l-4.08-13.439h-0.24v13.439H9.012V2.196h5.592l3.936,13.439h0.24V2.196H22.092z"/>
	<path d="M11.916,21.976c0.992,0.52,1.684,1.34,2.076,2.46c0.392,1.12,0.588,2.673,0.588,4.656c0,2.063-0.192,3.696-0.576,4.896
		c-0.384,1.2-1.076,2.088-2.076,2.664c-1,0.576-2.428,0.864-4.284,0.864H2.148V21.196h5.496C9.5,21.196,10.924,21.456,11.916,21.976
		z M9.96,34.012c0.504-0.416,0.832-1.012,0.984-1.788c0.152-0.775,0.228-1.884,0.228-3.324c0-1.279-0.08-2.248-0.24-2.904
		c-0.16-0.655-0.488-1.14-0.984-1.451c-0.496-0.313-1.264-0.469-2.304-0.469H5.46v10.561h2.184
		C8.684,34.636,9.456,34.428,9.96,34.012z"/>
	<path d="M19.547,36.915c-0.992-0.592-1.708-1.5-2.148-2.724s-0.66-2.812-0.66-4.764c0-1.968,0.22-3.571,0.66-4.812
		s1.156-2.168,2.148-2.785c0.992-0.615,2.312-0.924,3.96-0.924c1.647,0,2.968,0.309,3.96,0.924c0.992,0.617,1.708,1.545,2.148,2.785
		c0.44,1.24,0.66,2.844,0.66,4.812c0,1.92-0.212,3.488-0.636,4.704c-0.424,1.216-1.132,2.132-2.124,2.748
		c-0.992,0.615-2.328,0.924-4.008,0.924C21.859,37.804,20.54,37.508,19.547,36.915z M25.536,34.384
		c0.488-0.36,0.832-0.936,1.032-1.729c0.2-0.791,0.3-1.867,0.3-3.228s-0.104-2.444-0.312-3.252c-0.208-0.808-0.556-1.407-1.044-1.8
		c-0.488-0.393-1.156-0.588-2.004-0.588c-0.849,0-1.516,0.195-2.004,0.588s-0.836,0.992-1.044,1.8s-0.312,1.892-0.312,3.252
		c0,1.265,0.088,2.288,0.264,3.071c0.176,0.785,0.508,1.385,0.996,1.801c0.488,0.416,1.188,0.624,2.1,0.624
		C24.372,34.924,25.047,34.743,25.536,34.384z"/>
	<path d="M35.195,36.915c-0.992-0.592-1.709-1.5-2.148-2.724s-0.66-2.812-0.66-4.764c0-1.968,0.221-3.571,0.66-4.812
		s1.156-2.168,2.148-2.785c0.992-0.615,2.313-0.924,3.961-0.924c1.646,0,2.967,0.309,3.959,0.924
		c0.992,0.617,1.707,1.545,2.148,2.785c0.439,1.24,0.66,2.844,0.66,4.812c0,1.92-0.213,3.488-0.637,4.704s-1.133,2.132-2.123,2.748
		c-0.992,0.615-2.328,0.924-4.008,0.924C37.508,37.804,36.188,37.508,35.195,36.915z M41.184,34.384
		c0.488-0.36,0.832-0.936,1.031-1.729c0.201-0.791,0.301-1.867,0.301-3.228s-0.105-2.444-0.313-3.252s-0.557-1.407-1.043-1.8
		c-0.488-0.393-1.156-0.588-2.004-0.588c-0.85,0-1.518,0.195-2.006,0.588s-0.836,0.992-1.043,1.8
		c-0.209,0.808-0.313,1.892-0.313,3.252c0,1.265,0.088,2.288,0.264,3.071c0.176,0.785,0.508,1.385,0.996,1.801
		s1.189,0.624,2.102,0.624C40.02,34.924,40.695,34.743,41.184,34.384z"/>
	<path d="M48.756,21.196h6.336c3.84,0,5.76,1.791,5.76,5.375c0,2.129-0.801,3.696-2.4,4.704l2.328,6.24h-3.625l-1.895-5.472h-3.193
		v5.472h-3.311V21.196z M55.139,29.212c0.752,0,1.328-0.236,1.729-0.709c0.4-0.471,0.6-1.107,0.6-1.907s-0.207-1.429-0.623-1.884
		c-0.416-0.456-1-0.684-1.752-0.684h-3.025v5.184H55.139z"/>
</g>
</svg>
