<?xml version="1.0" encoding="utf-8"?>
<!-- Generator: Adobe Illustrator 16.0.0, SVG Export Plug-In . SVG Version: 6.00 Build 0)  -->
<!DOCTYPE svg PUBLIC "-//W3C//DTD SVG 1.1//EN" "http://www.w3.org/Graphics/SVG/1.1/DTD/svg11.dtd">
<svg version="1.1" id="Layer_1" xmlns="http://www.w3.org/2000/svg" xmlns:xlink="http://www.w3.org/1999/xlink" x="0px" y="0px"
	 width="355px" height="250px" viewBox="0 0 355 250" enable-background="new 0 0 355 250" xml:space="preserve">
<g>
	
		<linearGradient id="SVGID_1_" gradientUnits="userSpaceOnUse" x1="-1.9058" y1="2299.627" x2="-1.9058" y2="2479.9766" gradientTransform="matrix(1 0 0 -1 298 2482.2598)">
		<stop  offset="0" style="stop-color:#808080;stop-opacity:0.25"/>
		<stop  offset="0.54" style="stop-color:#808080;stop-opacity:0.12"/>
		<stop  offset="1" style="stop-color:#808080;stop-opacity:0.1"/>
	</linearGradient>
	<path fill="url(#SVGID_1_)" d="M352.466,99.743c-0.642-0.492-1.394-0.821-2.188-0.959c-0.839-0.192-1.693-0.313-2.546-0.448
		l-11.034-1.591c-1.115-0.207-2.251-0.268-3.38-0.179c-1.146,0.093-2.204,0.643-2.941,1.523c-0.328,0.406-0.509,0.913-0.511,1.435
		c0.062,0.526,0.232,1.033,0.503,1.488c0.106,0.212,0.197,0.433,0.272,0.659c0.105,0.507,0.237,1.008,0.395,1.501
		c0.049,0.107,0.112,0.207,0.188,0.296c0.002,0.025,0.002,0.051,0,0.076c-0.12,0.619,0.271,1.264,0.095,1.86
		c-0.152,0.511-0.649,0.821-0.963,1.247c-0.429,0.618-0.445,1.431-0.046,2.066c0.336,0.521,0.946,0.875,1.121,1.47
		c0.229,0.785-0.391,1.542-0.941,2.147c-1.015,1.114-1.951,2.296-2.806,3.537c-0.24,0.306-0.395,0.668-0.448,1.053
		c-0.05,0.78,0.698,1.466,0.568,2.242c-0.103,0.609-0.698,0.981-1.213,1.345c-1.906,1.255-3.435,3.272-3.588,5.553
		c-0.488-3.63-1.992-7.048-4.338-9.861c-0.641-0.771-1.344-1.546-1.609-2.524c-0.099-0.39-0.116-0.806-0.251-1.183
		c-0.448-1.188-1.873-1.699-2.496-2.793c-0.448-0.771-0.448-1.761-1.005-2.438c-0.556-0.677-1.43-0.829-1.908-1.483
		c-0.24-0.443-0.444-0.905-0.609-1.38c-0.202-0.388-0.485-0.728-0.831-0.996c-0.065-0.053-0.134-0.102-0.205-0.148
		c0.151-0.134,0.237-0.326,0.237-0.528c0-0.524-0.521-0.87-0.973-1.13c-0.582-0.332-1.152-0.69-1.707-1.062
		c0.605-0.282,1.131-0.713,1.527-1.25c0.498-0.803,0.704-1.753,0.583-2.689c-0.03-0.756-0.313-1.48-0.802-2.058
		c-0.283-0.3-0.637-0.515-0.933-0.798c-0.767-0.748-1.026-1.855-1.345-2.877c-0.422-1.345-1.081-2.757-2.309-3.469
		c-0.591-0.345-1.281-0.506-1.859-0.87c-0.579-0.363-1.063-1.049-0.86-1.708c0.134-0.449,0.551-0.758,0.832-1.139
		c0.702-1.024,0.448-2.424-0.568-3.137c-0.332-0.21-0.739-0.395-0.808-0.78c-0.529-0.138-0.933-0.566-1.039-1.103
		c-0.101-0.527-0.101-1.069,0-1.596c0.116-0.833,0.231-1.664,0.345-2.492c0.399,0.166,0.847,0.166,1.247,0
		c0.387,0.629,0.838,1.218,1.344,1.757c1.365,1.612,2.428,3.457,3.138,5.446c0.256,0.717,0.516,1.52,1.179,1.9
		c0.229,0.13,0.488,0.198,0.713,0.336c0.276,0.193,0.515,0.436,0.699,0.717c0.539,0.712,1.075,1.421,1.608,2.133l0.027,0.108
		c0.015,0.063,0.039,0.123,0.071,0.18c0.101,0.111,0.237,0.181,0.387,0.196c1.648,0.381,3.5,0.731,4.931-0.17
		c1.291-0.807,1.855-2.403,2.948-3.469c0.775-0.758,1.874-1.345,2.094-2.412c-0.262-0.081-0.519-0.175-0.771-0.282
		c0.224-0.224,0.447-0.484,0.753-0.78c0.442-0.434,0.842-0.91,1.192-1.421c0.377-0.63,0.679-1.305,0.896-2.008
		c0.863-2.462,1.729-4.926,2.599-7.391c0.412-1.166,0.825-2.34,1.346-3.474c0.538-1.229,1.175-2.407,1.761-3.613
		c1.515-3.135,2.686-6.427,3.487-9.816c0.143-0.462,0.189-0.949,0.14-1.43c-0.126-0.776-0.714-1.385-1.273-1.936
		c-0.563-0.611-1.206-1.143-1.91-1.583c-0.713-0.444-1.575-0.583-2.393-0.386c-1.147,0.336-1.869,1.511-2.134,2.689
		s-0.166,2.394-0.277,3.586c-0.162,1.726-0.754,3.393-0.897,5.123c-0.075,1,0,2.012-0.121,3.012
		c-0.22,1.308-0.677,2.566-1.345,3.711c-1.454,2.732-3.421,5.159-5.795,7.145c-0.273,0.229-0.557,0.448-0.825,0.695
		c0-0.192,0.031-0.39,0.059-0.583c-0.195,0.05-0.385,0.118-0.569,0.202c0.023-0.227,0-0.455-0.066-0.672
		c-0.36-1.072-1.955-1.345-2.242-2.434c-0.047-0.27-0.074-0.542-0.076-0.816c-0.094-0.955-0.744-1.762-0.969-2.689
		c-0.205-0.856-0.049-1.793-0.447-2.586c-0.341-0.497-0.741-0.948-1.192-1.345c-0.538-0.615-0.927-1.347-1.135-2.138
		c-0.058-0.22-0.111-0.448-0.173-0.668c0.067-0.497,0.012-1.003-0.163-1.474c-0.407-1.014-1.461-1.663-1.842-2.689
		c-0.296-0.798-0.165-1.793-0.727-2.412c-0.298-0.295-0.662-0.515-1.063-0.641c-2.051-0.799-4.204-1.308-6.396-1.511
		c-1.229-0.112-2.582-0.175-3.46-1.04c-1.027-1.004-1.075-2.81-2.277-3.586c-1.059-0.685-2.556-0.179-3.375,0.785
		c-0.124,0.142-0.238,0.292-0.341,0.448c-0.15-0.6-0.183-1.225-0.095-1.837c0-0.152,0.032-0.31,0.046-0.448
		c2.023-0.661,3.745-2.021,4.858-3.837c0,0,0,0,0,0.027l0.054,0.139c0.13,0.328,0.336,0.642,0.641,0.677l0,0
		c0.203-0.002,0.399-0.074,0.556-0.202c0.271-0.188,0.521-0.404,0.744-0.646c0.114-0.126,0.222-0.256,0.322-0.39
		c0.207-0.28,0.384-0.58,0.529-0.896c0.224-0.476,0.374-0.982,0.448-1.502c0.081-0.52,0.09-1.053,0.18-1.573
		c0.084-0.402,0.193-0.799,0.327-1.188c0.044-0.13,0.09-0.26,0.13-0.39c0.04-0.13,0.099-0.305,0.145-0.448
		c0.279-0.922,0.43-1.878,0.447-2.841c0-0.162,0-0.323,0-0.484c-0.033-1.271-0.575-2.474-1.506-3.339
		c-0.771-0.632-1.793-0.896-2.357-1.753c-0.368-0.573-0.448-1.313-0.663-1.985c-0.475-1.642-1.842-2.871-3.523-3.169
		c-0.993-0.108-1.99,0.166-2.788,0.767l0,0l-0.063,0.049l0,0c-0.444,0.339-0.821,0.759-1.111,1.237
		c-0.592-0.163-1.134-0.471-1.577-0.896c-0.449-0.417-0.794-0.941-1.246-1.345c-0.862-0.789-2.085-1.046-3.191-0.672
		c-1.137,0.455-1.984,1.427-2.281,2.613c-0.247,0.923-0.202,1.986-0.718,2.757c-0.399,0.601-1.054,0.896-1.511,1.443
		c-0.284,0.347-0.478,0.757-0.564,1.197l0,0c-0.055,0.246-0.08,0.497-0.077,0.748l0,0c0,0.112,0,0.225,0.027,0.332
		c0,0,0,0.036,0,0.054c0.017,0.123,0.042,0.244,0.076,0.363l0,0c0.128,0.454,0.355,0.875,0.668,1.228
		c0.296,0.339,0.665,0.606,1.08,0.78c0.17,0.065,0.344,0.122,0.521,0.166l0.533,0.121l0.188,0.045
		c-1.305,2.449-1.397,5.366-0.251,7.893c0,0.125-0.032,0.251-0.045,0.376c-0.073,1.765,0.006,3.533,0.232,5.285
		c0.063,0.694,0.1,1.461-0.326,2.013c-0.194,0.217-0.412,0.411-0.65,0.578c0.241-0.314,0.489-0.623,0.739-0.932
		c-0.632-0.637-1.631-0.717-2.528-0.654c-1.734,0.129-3.418,0.644-4.93,1.506c-1.004,0.579-2.034,1.345-3.183,1.21
		c-0.677-0.076-1.345-0.448-2.004-0.269c-0.37,0.151-0.716,0.357-1.026,0.609c-0.245,0.176-0.541,0.267-0.843,0.26
		c-0.703-0.865-1.792-1.452-2.636-2.156c-0.958-0.854-1.837-1.794-2.622-2.81c-1.451-1.752-2.899-3.509-4.324-5.28
		c-1.201-1.488-2.435-3.097-2.646-5.002c-0.021-0.189-0.031-0.379-0.031-0.569c0.029-0.906,0.144-1.806,0.341-2.69
		c0.053-0.213,0.053-0.437,0-0.65c-0.134-0.448-0.649-0.614-1.094-0.712l0,0c0.059-0.346,0.099-0.699,0.121-1.036
		c0.251-3.854-0.022-7.772,0.794-11.546c0.309-1.452,0.815-2.923,1.859-3.976c1.636-1.654,4.375-2.053,5.63-4.012
		c1.049-1.631,0.632-3.939-0.686-5.378c-1.318-1.439-3.348-2.026-5.279-1.954c-0.543-0.019-1.078,0.125-1.538,0.412
		c-0.431,0.382-0.752,0.87-0.933,1.417l-1.923,4.675c-0.558,1.217-1.027,2.472-1.407,3.757c-0.538,1.963-0.659,4.034-1.085,6.015
		c0,1.524-0.981,3.424-1.521,4.828c-0.6,1.578-1.249,3.138-1.792,4.747c-0.134,0.403-0.604,1.6-0.896,2.689
		c-0.11,0.064-0.212,0.141-0.305,0.229c-0.234,0.3-0.446,0.616-0.636,0.946c-0.408,0.538-1.071,0.825-1.521,1.345
		c-0.448,0.52-0.543,1.475,0.08,1.734c0.128,0.043,0.258,0.071,0.391,0.085c0.082,0.007,0.163,0.021,0.242,0.041
		c0.673,0.188,0.938,1.036,0.839,1.734c-0.1,0.699-0.448,1.345-0.507,2.044c-0.121,1.237,0.605,2.389,1.304,3.429
		c0.725,1.127,1.524,2.204,2.395,3.223c0.631,0.708,1.344,1.345,1.98,2.025c2.426,2.493,4.352,5.406,6.531,8.114
		c0.783,1.021,1.675,1.956,2.657,2.788c0.643,0.502,1.314,0.964,2.013,1.385l3.747,2.375c0.426,0.312,0.906,0.539,1.417,0.668
		c0.166,0.022,0.335,0.022,0.502,0c0.021,0.112,0.041,0.22,0.067,0.332c0.291,1.174,0.932,2.241,1.004,3.438
		c0.071,1.197-0.036,2.42,0.048,3.63c0.082,1.116,0.328,2.241,0.391,3.339c0.126,2.115-0.395,4.205-0.896,6.275
		c-0.757,3.03-1.214,6.123-2.688,8.871c-0.413,0.758-0.897,1.528-0.897,2.394c0,0.104,0,0.21,0.027,0.314l0,0l-0.672,0.381
		c-0.197,0.112-0.395,0.225-0.574,0.341c-0.852,0.556-1.762,1.169-2.111,2.129c-0.282,0.776-0.152,1.664-0.493,2.416
		c-0.015,0.034-0.034,0.066-0.054,0.099c-0.358,0.699-1.071,1.219-1.231,1.985l0,0c-0.121,0.587,0.111,1.21,0,1.793c0,0,0,0,0,0.022
		c-0.103,0.293-0.184,0.592-0.242,0.897c-0.006,0.099,0.003,0.199,0.026,0.295c0.085,0.34,0.273,0.645,0.538,0.875
		c0.161,0.154,0.337,0.294,0.524,0.416c0.19,0.126,0.388,0.243,0.592,0.35l0.116,0.063c0.17,0.09,0.34,0.175,0.515,0.256
		l0.117,0.049c0.202,0.09,0.408,0.17,0.614,0.242l0.143,0.045c0.162,0.054,0.328,0.104,0.494,0.143l0.111,0.036l0.104,0.022
		l0.448,0.094l0.166,0.032c0.197,0.033,0.398,0.06,0.604,0.081h0.18c0.152,0,0.3,0.022,0.448,0.027h0.211c0.156,0,0.31,0,0.448,0
		h0.16c0.211,0,0.422-0.032,0.633-0.058h0.067c0.188-0.027,0.376-0.059,0.564-0.1l0.145-0.03c0.174-0.041,0.349-0.082,0.523-0.135
		l0.094-0.027c0.21-0.063,0.421-0.13,0.628-0.21c0.714-0.293,1.405-0.637,2.07-1.027c0.449-0.247,0.897-0.498,1.345-0.726
		c0.333-0.167,0.674-0.317,1.022-0.448c0.848-0.362,1.771-0.516,2.689-0.448c0.454,0.062,0.902,0.153,1.345,0.273
		c0,0.05,0,0.099,0,0.148c0.364,2.151,0.725,4.303,1.08,6.455c0.587-0.422,1.207-0.796,1.855-1.116
		c-0.121,0.325-0.201,0.664-0.238,1.008c-0.026,0.267-0.026,0.536,0,0.803c0.041,0.425,0.131,0.896-0.125,1.232
		c-0.156,0.206-0.448,0.323-0.532,0.556c-0.063,0.238-0.078,0.487-0.047,0.73c-0.036,0.576-0.49,1.037-1.065,1.085
		c0.265,0.743-0.016,1.569-0.677,1.999c-0.187,0.09-0.362,0.205-0.521,0.34c-0.152,0.198-0.256,0.431-0.3,0.677
		c-0.593,2.22-1.811,4.223-3.51,5.77c-0.638,0.5-1.219,1.068-1.734,1.694c-0.319,0.484-0.582,1.003-0.785,1.546
		c-1.195,2.922-2.408,5.846-3.639,8.772c-0.682,1.637-1.346,3.299-1.561,5.061c-0.538,4.832-4.841,8.929-4.033,13.725
		c0.162,1.199,0.645,2.33,1.398,3.277c0.896,1.08,2.24,1.698,3.585,2.2c3.456,1.345,7.101,2.08,10.731,2.819l5.701,1.17
		c1.119,0.258,2.253,0.438,3.397,0.538c1.376,0.095,2.788-0.036,4.128,0.313c0.829,0.215,1.622,0.614,2.479,0.658
		c0.735,0.041,1.641-0.115,2.076,0.484c0.434,0.601,0.098,1.395,0.511,1.928c0.663,0.848,2.281,0,3.003,0.798
		c0.197,0.307,0.349,0.641,0.447,0.991c0.11,0.217,0.263,0.408,0.448,0.564c0.045,0.254,0.063,0.51,0.055,0.767
		c-0.094,1.04-0.311,2.067-0.646,3.057c-0.537,1.82-1.074,3.642-1.609,5.464c-0.204,0.645-0.354,1.304-0.448,1.972
		c-0.033,0.325-0.033,0.653,0,0.978c0.095,0.991,0.664,2.013,1.609,2.336c0.733,0.193,1.515,0.098,2.179-0.27
		c0.641-0.334,1.243-0.74,1.793-1.21c0.992-0.751,1.864-1.649,2.586-2.663c2.242-3.352,1.516-7.889,3.089-11.596
		c1.043-2.474,3.079-4.482,3.756-7.09c0.158-0.497,0.177-1.027,0.054-1.533c-0.282-0.896-1.237-1.407-2.13-1.73h-0.039
		c-0.734-0.261-1.482-0.475-2.241-0.641c-0.189-0.041-0.382-0.072-0.574-0.104c-0.426-0.348-0.767-0.789-0.99-1.291
		c-0.036-0.267-0.106-0.527-0.211-0.775c-0.145-0.217-0.386-0.35-0.646-0.358c-0.447-0.045-1.048,0.116-1.537,0.081
		c-0.999-0.072-1.662-1.054-2.56-1.506c-0.896-0.453-1.868-0.341-2.823-0.274c-0.341,0.048-0.689,0.025-1.021-0.063
		c-0.398-0.183-0.762-0.434-1.076-0.739c-1.118-0.87-2.581-1.164-3.949-0.793c-0.429,0.172-0.884,0.275-1.344,0.305
		c-0.875-0.05-1.493-0.83-2.139-1.421c-1.767-1.618-4.279-2.044-6.423-3.106c-0.328-0.122-0.602-0.357-0.771-0.663
		c-0.248-0.61,0.309-1.22,0.811-1.636l3.685-3.063c4.034-3.353,9.077-5.876,10.95-10.793c0.195-0.659,0.498-1.281,0.897-1.842
		c0.144-0.172,0.312-0.322,0.496-0.449c0.815-0.527,1.803-0.721,2.757-0.537c1.162,0.26,2.264,0.74,3.246,1.416
		c1.604,0.972,3.165,2.018,4.684,3.138c1.503,1.074,2.934,2.249,4.28,3.515c2.354,2.24,4.313,4.898,6.504,7.314
		s4.697,4.671,7.74,5.827c3.044,1.156,6.725,1.107,9.337-0.833c3.018-2.242,3.985-6.249,4.747-9.925
		c1.682-1.622,2.188-4.093,3.008-6.274c0.516-1.385,1.174-2.689,1.73-4.07c0.663-1.623,1.183-3.299,1.703-4.971
		c0.589-1.679,0.988-3.419,1.191-5.186c0.216-2.792-0.532-5.764,0.251-8.386c1.036-0.229,1.978-0.812,2.995-1.152
		c1.515-0.498,3.137-0.417,4.741-0.408h0.104c0.553,0.059,1.109-0.072,1.578-0.372c0.538-0.448,0.624-1.214,0.649-1.909
		C353.858,102.782,353.752,100.854,352.466,99.743z M287.521,23.284c-0.369,0.091-0.753,0.119-1.133,0.08L287.521,23.284z"/>
	<path fill="#BE6F72" d="M289.287,51.639c-0.543,0.461-1.179,0.799-1.865,0.99l-3.177,1.139c-1.726,0.619-3.528,1.242-5.348,1.017
		c-1.018-0.125-5.38-0.767-6.037-1.56c-1.004-1.228,2.513-3.034,3.715-4.069c0.272-0.195,0.525-0.418,0.754-0.664
		c0.447-0.546,0.39-1.313,0.327-2.003c-0.229-1.749-0.308-3.514-0.233-5.276c0.034-0.42,0.095-0.838,0.179-1.25
		c0.448-2.062,2.367-1.309,3.882-0.762c1.823,0.593,3.587,1.357,5.267,2.282c0.512,0.264,0.957,0.641,1.3,1.102
		c0.663,1.004,0.398,2.323,0.291,3.586c-0.094,0.982-0.09,1.923,0.525,2.635c0.309,0.273,0.592,0.573,0.847,0.896
		C290.008,50.372,289.835,51.154,289.287,51.639z"/>
	<path fill="#BE6F72" d="M245.388,19.335c0.448-1.985,0.547-4.034,1.084-6.002c0.381-1.279,0.851-2.53,1.408-3.742l1.977-4.612
		c0.181-0.545,0.503-1.032,0.932-1.412c0.462-0.286,0.996-0.429,1.538-0.412c1.932-0.072,3.963,0.528,5.28,1.949
		c1.317,1.421,1.734,3.721,0.686,5.348c-1.255,1.959-3.993,2.353-5.629,4.002c-1.046,1.053-1.551,2.52-1.86,3.967
		c-0.815,3.765-0.543,7.669-0.794,11.515c-0.081,1.197-0.314,2.564-1.345,3.183c-0.623,0.305-1.316,0.44-2.008,0.39l-2.94,0.05
		c-0.492,0-2.281,0.309-2.608-0.063c-0.574-0.649,0.735-3.886,0.973-4.607c0.529-1.6,1.178-3.16,1.792-4.733
		C244.406,22.75,245.388,20.854,245.388,19.335z"/>
	<path fill="#3F3D56" d="M306.1,160.15c-0.676,2.591-2.711,4.607-3.756,7.077c-1.572,3.698-0.864,8.22-3.087,11.564
		c-0.723,1.016-1.594,1.915-2.588,2.667c-0.55,0.469-1.151,0.873-1.792,1.205c-0.665,0.367-1.445,0.463-2.18,0.27
		c-0.944-0.322-1.514-1.344-1.608-2.33c-0.033-0.324-0.033-0.65,0-0.974c0.095-0.667,0.244-1.325,0.448-1.968
		c0.539-1.813,1.074-3.631,1.608-5.45c0.336-0.987,0.553-2.01,0.646-3.048c0.058-1.129-0.658-2.6-0.354-3.653
		c0.14-0.475,0.659-0.896,0.897-1.295c0.336-0.574,0.596-1.19,0.771-1.833c0.367-1.251,0.618-2.587,1.39-3.64
		c0.503-0.624,1.09-1.177,1.747-1.637c0.485-0.425,1.053-0.743,1.668-0.937c0.597-0.105,1.21-0.076,1.792,0.085
		c0.762,0.163,1.511,0.376,2.242,0.637h0.041c0.896,0.323,1.846,0.819,2.129,1.726C306.251,159.12,306.246,159.65,306.1,160.15z"/>
	<path fill="#3F3D56" d="M353.792,105.045c-0.027,0.695-0.112,1.471-0.649,1.905c-0.469,0.299-1.025,0.431-1.578,0.372h-0.121
		c-1.601,0-3.228-0.089-4.742,0.408c-1.152,0.382-2.211,1.081-3.411,1.22c-1.654,0.188-3.209-0.718-4.676-1.507
		c-1.38-0.743-2.796-1.416-4.244-2.017c-0.95-0.39-2.892-0.641-3.349-1.681c-0.156-0.492-0.288-0.992-0.395-1.497
		c-0.074-0.226-0.166-0.446-0.272-0.659c-0.27-0.454-0.44-0.959-0.503-1.484c0.002-0.522,0.183-1.028,0.511-1.434
		c0.738-0.874,1.796-1.418,2.937-1.511c1.13-0.087,2.266-0.027,3.38,0.179l11.035,1.587c0.851,0.121,1.708,0.242,2.546,0.448
		c0.796,0.138,1.547,0.467,2.188,0.959C353.752,101.428,353.858,103.351,353.792,105.045z"/>
	<path fill="#65617D" d="M344.092,107.914c-1.344,2.837-0.376,6.194-0.618,9.332c-0.204,1.763-0.604,3.498-1.192,5.172
		c-0.521,1.667-1.04,3.339-1.703,4.958c-0.556,1.345-1.215,2.688-1.73,4.062c-0.82,2.188-1.344,4.648-3.008,6.275
		c-0.762,3.666-1.729,7.673-4.747,9.896c-2.622,1.936-6.275,2.003-9.336,0.833c-3.062-1.169-5.549-3.411-7.741-5.827
		s-4.15-5.047-6.504-7.297c-1.348-1.266-2.782-2.438-4.29-3.51c-1.518-1.103-3.078-2.139-4.683-3.11
		c-0.982-0.673-2.084-1.151-3.246-1.411c-0.953-0.184-1.94,0.01-2.757,0.537c-0.185,0.127-0.353,0.277-0.497,0.448
		c-0.398,0.558-0.702,1.179-0.896,1.837c-1.883,4.904-6.934,7.424-10.968,10.768l-3.684,3.053c-0.503,0.416-1.059,1.025-0.813,1.631
		c0.17,0.307,0.443,0.541,0.771,0.664c2.142,1.057,4.657,1.482,6.423,3.097c0.646,0.591,1.265,1.371,2.138,1.417
		c0.462-0.027,0.915-0.129,1.346-0.301c1.366-0.37,2.828-0.078,3.948,0.789c0.313,0.306,0.678,0.556,1.076,0.739
		c0.333,0.088,0.681,0.109,1.021,0.063c0.955-0.068,1.968-0.153,2.824,0.272c0.855,0.426,1.56,1.431,2.56,1.502
		c0.488,0.036,1.071-0.126,1.537-0.081c0.26,0.008,0.501,0.142,0.646,0.358c0.104,0.246,0.176,0.506,0.21,0.771
		c0.185,0.632,0.803,1.017,1.206,1.537c0.618,0.798,0.709,1.882,0.646,2.892c-0.203,3.152-1.608,6.108-3.926,8.256
		c-0.659,0.673-1.499,1.14-2.417,1.346c-0.942,0.197-1.907-0.231-2.393-1.063c-0.101-0.349-0.251-0.681-0.448-0.986
		c-0.723-0.794-2.34,0.05-3.004-0.798c-0.412-0.529-0.116-1.375-0.511-1.922c-0.395-0.548-1.345-0.449-2.075-0.48
		c-0.856-0.045-1.649-0.447-2.479-0.659c-1.345-0.349-2.753-0.219-4.129-0.313c-1.144-0.1-2.278-0.28-3.396-0.537l-5.702-1.166
		c-3.631-0.74-7.275-1.488-10.73-2.811c-1.322-0.502-2.654-1.12-3.586-2.196c-0.752-0.945-1.235-2.075-1.398-3.272
		c-0.812-4.781,3.491-8.869,4.033-13.688c0.193-1.757,0.897-3.415,1.561-5.048c1.217-2.916,2.43-5.834,3.639-8.753
		c0.196-0.543,0.452-1.064,0.763-1.551c0.517-0.624,1.098-1.19,1.735-1.689c1.698-1.542,2.917-3.539,3.509-5.755
		c0.045-0.247,0.147-0.479,0.3-0.677c0.16-0.133,0.334-0.246,0.521-0.336c0.659-0.429,0.939-1.253,0.677-1.995
		c0.575-0.047,1.029-0.509,1.067-1.085c-0.032-0.242-0.019-0.489,0.044-0.726c0.108-0.233,0.377-0.35,0.535-0.556
		c0.254-0.336,0.165-0.807,0.125-1.228c-0.028-0.267-0.028-0.536,0-0.803c0.098-0.949,0.522-1.834,1.201-2.505
		c1.071-1.054,2.595-0.781,4.074-1.031c1.475-0.318,2.916-0.779,4.303-1.376c3.89-1.533,7.984-2.479,12.152-2.81
		c4.188-0.33,8.394,0.341,12.271,1.955c0.564,0.228,1.096,0.529,1.583,0.896c0.345,0.266,0.627,0.604,0.829,0.991
		c0.164,0.475,0.369,0.935,0.608,1.377c0.48,0.654,1.386,0.864,1.91,1.483s0.569,1.664,1.004,2.43
		c0.623,1.094,2.066,1.6,2.497,2.788c0.134,0.376,0.152,0.789,0.251,1.178c0.242,0.978,0.968,1.749,1.608,2.519
		c2.351,2.811,3.854,6.23,4.339,9.862c0.145-2.273,1.673-4.286,3.587-5.541c0.515-0.336,1.111-0.708,1.214-1.318
		c0.13-0.771-0.618-1.457-0.569-2.241c0.055-0.382,0.21-0.745,0.448-1.049c0.855-1.237,1.792-2.416,2.807-3.526
		c0.551-0.606,1.17-1.345,0.941-2.143c-0.176-0.597-0.785-0.946-1.121-1.466c-0.401-0.634-0.384-1.446,0.044-2.062
		c0.314-0.426,0.813-0.735,0.965-1.241c0.174-0.596-0.215-1.242-0.094-1.856c0.164-0.492,0.488-0.913,0.922-1.196
		c0.595-0.542,1.271-0.986,2.005-1.318c1.183-0.448,2.5-0.282,3.756-0.107c2.098,0.291,4.451,0.739,5.634,2.496
		C344.271,105.072,344.657,106.74,344.092,107.914z"/>
	<path opacity="0.1" enable-background="new    " d="M353.792,105.045c-0.027,0.695-0.112,1.471-0.649,1.905
		c-0.469,0.299-1.025,0.431-1.578,0.372h-0.121c0.184-0.932,1.317-1.465,1.515-2.411c0.068-0.588-0.11-1.177-0.492-1.628
		c-0.961-1.295-2.502-2.012-4.035-2.537c-4.33-1.484-8.971-1.832-13.475-1.008c-1.224,0.199-2.415,0.566-3.539,1.089
		c-0.375,0.233-0.732,0.488-1.076,0.762c-0.27-0.454-0.44-0.959-0.503-1.484c0.002-0.522,0.183-1.028,0.512-1.434
		c0.739-0.874,1.796-1.418,2.936-1.511c1.129-0.087,2.266-0.027,3.38,0.179l11.035,1.587c0.852,0.121,1.708,0.242,2.546,0.448
		c0.796,0.138,1.546,0.467,2.187,0.959C353.752,101.428,353.858,103.351,353.792,105.045z"/>
	<path opacity="0.1" enable-background="new    " d="M306.1,160.15c-0.676,2.591-2.711,4.607-3.756,7.077
		c-1.572,3.698-0.864,8.22-3.087,11.564c-0.723,1.016-1.594,1.915-2.588,2.667c-0.55,0.469-1.151,0.873-1.792,1.205
		c-0.665,0.367-1.445,0.463-2.18,0.27c-0.944-0.322-1.514-1.344-1.608-2.33c-0.033-0.324-0.033-0.65,0-0.974l0.027,0.072
		c0.39,0.94,1.026,1.927,2.029,2.093c0.764,0.056,1.513-0.209,2.071-0.73c1.479-1.188,2.341-2.958,3.161-4.666
		c0.641-1.231,1.149-2.528,1.516-3.868c0.178-0.762,0.264-1.542,0.447-2.304c0.851-3.703,3.752-6.723,4.392-10.475
		c0.053-0.259,0.065-0.523,0.037-0.785c-0.085-0.342-0.215-0.67-0.386-0.977c-0.156-0.348-0.271-0.711-0.341-1.085
		c0.896,0.323,1.846,0.819,2.129,1.726C306.288,159.135,306.263,159.66,306.1,160.15z"/>
	<path opacity="0.1" enable-background="new    " d="M299.332,153.723c-0.415,1.084-1.113,2.038-2.021,2.762
		c-1.276,0.972-2.771,1.617-4.354,1.882c-0.736,0.188-1.51,0.179-2.241-0.026c-0.994-0.346-1.712-1.277-2.729-1.547
		c-0.726-0.197-1.506-0.022-2.24-0.13c-1.323-0.184-2.35-1.192-3.417-1.999c-3.268-2.457-7.557-3.25-10.824-5.706
		c-0.146-0.089-0.267-0.215-0.35-0.364c-0.063-0.16-0.086-0.334-0.067-0.506c0.013-1.489,0.348-2.959,0.982-4.307
		c0.519-0.941,1.139-1.823,1.847-2.631c2.927-3.586,5.867-7.199,9.372-10.225c1.47-1.269,3.074-2.452,4.931-3.025
		c1.03-0.318,3.065-0.619,4.32-0.081c-0.185,0.127-0.352,0.278-0.498,0.448c-0.397,0.559-0.701,1.18-0.896,1.838
		c-1.888,4.908-6.938,7.428-10.973,10.771l-3.684,3.053c-0.503,0.416-1.059,1.025-0.813,1.631c0.17,0.307,0.443,0.541,0.771,0.664
		c2.142,1.057,4.657,1.482,6.423,3.097c0.646,0.591,1.265,1.371,2.138,1.417c0.462-0.027,0.915-0.129,1.346-0.301
		c1.366-0.37,2.828-0.078,3.948,0.789c0.313,0.306,0.678,0.556,1.076,0.739c0.333,0.088,0.681,0.109,1.021,0.063
		c0.955-0.068,1.968-0.153,2.824,0.272c0.855,0.426,1.56,1.431,2.56,1.502C298.284,153.84,298.865,153.669,299.332,153.723z"/>
	<path fill="#3F3D56" d="M258.108,92.89c-0.852,0.547-1.758,1.165-2.106,2.115c-0.287,0.776-0.152,1.663-0.497,2.416
		c-0.346,0.753-1.121,1.277-1.291,2.084c-0.121,0.588,0.116,1.206,0,1.793c-0.103,0.306-0.184,0.617-0.247,0.933
		c-0.045,0.668,0.528,1.21,1.089,1.582c2.42,1.573,5.441,1.906,8.145,0.897c1.197-0.449,2.276-1.179,3.425-1.753
		c1.119-0.645,2.399-0.956,3.688-0.896c0.739,0.08,1.448,0.35,2.188,0.448c0.74,0.146,1.508-0.082,2.048-0.61
		c0.229-0.315,0.381-0.678,0.448-1.062c0.623-2.461,0.34-5.07-0.252-7.544c-0.591-2.474-1.487-4.854-2.119-7.314
		c-0.448-1.825-0.795-3.694-1.543-5.419s-2.007-3.331-3.769-3.989c-0.14-0.068-0.297-0.089-0.449-0.059
		c-0.112,0.047-0.212,0.121-0.29,0.215c-1.394,1.477-2.444,3.243-3.076,5.172c-0.702,2.147-0.896,4.424-1.541,6.581
		c-0.278,0.896-0.636,2.097-1.345,2.784C259.906,91.948,258.911,92.374,258.108,92.89z"/>
	<path opacity="0.1" enable-background="new    " d="M275.012,100.823c-0.076,0.385-0.236,0.748-0.471,1.062
		c-0.54,0.53-1.308,0.757-2.049,0.605c-0.735-0.09-1.443-0.363-2.183-0.448c-1.291-0.059-2.571,0.251-3.688,0.896
		c-1.148,0.574-2.242,1.287-3.43,1.749c-1.737,0.658-3.637,0.767-5.437,0.309c-0.958-0.241-1.866-0.641-2.689-1.184
		c-0.565-0.367-1.134-0.896-1.09-1.582c0.063-0.314,0.146-0.624,0.246-0.928c0.117-0.588-0.116-1.206,0-1.794
		c0.171-0.806,0.95-1.344,1.291-2.088c0.342-0.744,0.211-1.636,0.493-2.412c0.351-0.955,1.26-1.569,2.111-2.12
		c0.852-0.552,1.865-0.973,2.546-1.641c0.088-0.104,0.168-0.214,0.238-0.332c0.49-0.758,0.852-1.593,1.067-2.47
		c0.657-2.161,0.836-4.433,1.537-6.585c0.633-1.928,1.685-3.692,3.078-5.168c0.076-0.096,0.174-0.17,0.287-0.215
		c0.15-0.031,0.309-0.012,0.448,0.054c1.758,0.663,3.017,2.268,3.771,3.994c0.753,1.725,1.07,3.585,1.541,5.414
		c0.628,2.461,1.528,4.85,2.121,7.32C275.343,95.73,275.635,98.358,275.012,100.823z"/>
	<path opacity="0.1" enable-background="new    " d="M288.341,46.157c-4.363,1.386-9.072-0.74-10.918-4.931
		c0.034-0.42,0.095-0.837,0.179-1.251c0.448-2.062,2.367-1.309,3.882-0.762c1.823,0.592,3.587,1.356,5.267,2.281
		c0.512,0.264,0.957,0.641,1.3,1.103C288.713,43.588,288.448,44.907,288.341,46.157z"/>
	<circle fill="#BE6F72" cx="285.634" cy="37.166" r="8.964"/>
	<path opacity="0.1" enable-background="new    " d="M309.96,104.157c0,0.744-1.008,0.982-1.757,0.942
		c-2.689-0.157-5.321-0.897-7.983-0.672c-3.366,0.304-6.459,2.165-9.835,2.335c-1.299,0.067-2.622-0.126-3.903,0.112
		c-1.658,0.309-3.138,1.317-4.827,1.461c-1.466,0.126-2.914-0.426-4.38-0.367c-1.024,0.061-2.023,0.346-2.927,0.834
		c0.099-0.949,0.522-1.835,1.201-2.506c1.071-1.054,2.595-0.781,4.074-1.031c1.476-0.318,2.918-0.779,4.303-1.376
		c3.891-1.532,7.984-2.479,12.152-2.81c4.186-0.333,8.39,0.332,12.268,1.941c0.564,0.228,1.096,0.529,1.583,0.896
		C309.952,103.994,309.963,104.076,309.96,104.157z"/>
	<path fill="#E3E8F4" d="M281.488,53.535l-3.631-1.345l-1.533-0.565c-0.624-0.262-1.282-0.437-1.955-0.52
		c-1.756-0.135-3.409,1.035-4.348,2.528c-0.936,1.493-1.291,3.272-1.59,5.007c-0.413,2.373-0.763,4.754-1.049,7.145
		c-0.311,2.159-0.467,4.337-0.471,6.517c0.102,5.55,1.276,11.022,2.566,16.423c0.634,2.395,1.111,4.827,1.432,7.284
		c0.107,1.013,0.156,2.031,0.264,3.048c0.116,1.143,0.305,2.273,0.494,3.407l1.079,6.441c1.345-0.955,2.874-1.793,4.527-1.842
		c1.466-0.054,2.918,0.493,4.38,0.367c1.681-0.139,3.169-1.147,4.827-1.457c1.281-0.237,2.604-0.049,3.908-0.112
		c3.371-0.17,6.469-2.034,9.83-2.334c2.667-0.243,5.315,0.511,7.987,0.667c0.745,0.045,1.753-0.193,1.753-0.941
		c0-0.52-0.521-0.865-0.974-1.125c-2.134-1.285-4.165-2.734-6.073-4.334c-1.766-1.398-3.56-2.833-4.773-4.725
		c-2.927-4.549-1.923-10.704-4.419-15.504c-2.031-3.899,0-9.009,0-13.406c0-2.192,0-4.41-0.517-6.54
		c-0.321-1.19-0.722-2.359-1.201-3.496l-1.743-4.415c-0.036-0.129-0.107-0.246-0.206-0.336c-0.117-0.081-0.257-0.124-0.399-0.122
		c-1.047-0.062-2.079,0.269-2.896,0.928c-0.82,0.668-1.345,1.627-2.151,2.322C283.725,53.266,282.586,53.938,281.488,53.535z"/>
	<path fill="#3F3D56" d="M287.347,50.989c0.286-1.228,0.596-2.505,1.416-3.465c0.82-0.958,2.318-1.465,3.375-0.78
		c1.201,0.78,1.251,2.582,2.276,3.586c0.897,0.86,2.241,0.928,3.461,1.04c2.191,0.199,4.346,0.707,6.396,1.506
		c0.399,0.124,0.765,0.342,1.063,0.636c0.561,0.637,0.447,1.614,0.726,2.407c0.381,1.023,1.435,1.672,1.843,2.689
		c0.448,1.13,0,2.394-0.377,3.555c-0.677,2.084-1.103,4.25-1.762,6.343c-0.659,2.092-1.596,4.155-3.137,5.732
		c-0.682,0.7-1.695,1.345-2.591,0.928l-0.346,2.487c-0.101,0.526-0.101,1.065,0,1.591c0.106,0.537,0.511,0.966,1.04,1.103
		c0.067,0.385,0.476,0.569,0.807,0.78c1.022,0.698,1.283,2.093,0.585,3.115c-0.005,0.008-0.011,0.015-0.016,0.023
		c-0.282,0.381-0.698,0.681-0.834,1.134c-0.201,0.654,0.279,1.344,0.86,1.703c0.583,0.358,1.269,0.524,1.859,0.87
		c1.229,0.708,1.889,2.102,2.31,3.456c0.313,1.022,0.574,2.129,1.346,2.874c0.295,0.282,0.649,0.498,0.932,0.793
		c0.489,0.577,0.771,1.301,0.802,2.057c0.123,0.937-0.083,1.888-0.582,2.689c-0.896,1.282-2.569,1.663-4.034,2.241
		c-2.381,0.978-4.34,2.725-6.437,4.214c-0.854,0.688-1.861,1.161-2.936,1.38c-1.453,0.192-2.883-0.448-4.345-0.506
		c-0.874,0.008-1.743,0.122-2.59,0.341l-2.689,0.582c0.143-2.084-1.003-4.173-1.645-6.158c-1.211-3.739-1.435-7.737-1.147-11.654
		c0.287-3.917,1.084-7.782,1.873-11.627c0.552-2.689,0.497-5.5,1.345-8.113c0.794-2.515,1.927-4.931,2.344-7.548
		C289.22,58.756,286.388,55.167,287.347,50.989z"/>
	<path fill="#3F3D56" d="M307.737,59.276c0.247,0.456,0.42,0.947,0.514,1.457c0.208,0.79,0.597,1.521,1.135,2.134
		c0.451,0.398,0.852,0.85,1.192,1.345c0.413,0.78,0.255,1.73,0.447,2.582c0.225,0.928,0.875,1.734,0.969,2.689
		c0.002,0.273,0.029,0.546,0.076,0.816c0.293,1.085,1.887,1.345,2.242,2.43c0.237,0.703-0.172,1.47-0.095,2.209
		c0.056,0.229,0.07,0.465,0.04,0.699c-0.101,0.265-0.279,0.492-0.51,0.655c-1.485,1.417-2.512,3.245-2.95,5.249
		c-0.432,1.993-0.659,4.025-0.678,6.064l-1.752-2.317c-0.186-0.281-0.423-0.524-0.698-0.717c-0.225-0.135-0.484-0.202-0.714-0.336
		c-0.663-0.377-0.924-1.174-1.179-1.892c-0.709-1.985-1.772-3.826-3.138-5.432c-0.713-0.838-1.541-1.681-1.699-2.77
		c-0.047-0.5-0.02-1.005,0.081-1.497c0.448-2.936,0.929-5.944,2.358-8.548c0.667-1.219,1.532-2.322,2.174-3.559
		C305.983,59.716,306.589,57.583,307.737,59.276z"/>
	<path fill="#3F3D56" d="M263.519,62.096c0.008,0.377-0.088,0.75-0.278,1.076c-0.35,0.405-0.897,0.578-1.415,0.448
		c-0.512-0.128-0.993-0.354-1.417-0.664c-1.249-0.789-2.498-1.58-3.747-2.372c-0.697-0.42-1.37-0.881-2.014-1.38
		c-0.982-0.83-1.873-1.764-2.657-2.784c-2.179-2.689-4.105-5.607-6.531-8.068c-0.658-0.672-1.345-1.317-1.98-2.021
		c-0.87-1.017-1.67-2.092-2.394-3.218c-0.699-1.036-1.425-2.183-1.305-3.42c0.072-0.699,0.408-1.344,0.507-2.039
		s-0.165-1.542-0.838-1.73c-0.08-0.02-0.161-0.034-0.242-0.041c-0.134-0.014-0.264-0.043-0.39-0.085
		c-0.624-0.26-0.529-1.224-0.081-1.73s1.111-0.789,1.52-1.345c0.189-0.33,0.402-0.646,0.637-0.946
		c0.301-0.257,0.658-0.437,1.044-0.524c2.585-0.762,5.321-0.865,7.956-0.301c0.448,0.099,0.959,0.278,1.093,0.713
		c0.055,0.211,0.055,0.434,0,0.645c-0.197,0.884-0.311,1.784-0.34,2.689c0,0.189,0.01,0.377,0.031,0.565
		c0.212,1.9,1.443,3.509,2.645,4.993c1.426,1.766,2.873,3.519,4.325,5.267c0.786,1.013,1.663,1.951,2.623,2.802
		c0.896,0.744,2.057,1.345,2.757,2.299c0.568,0.771,0.385,1.825,0.447,2.752C263.683,56.48,263.697,59.293,263.519,62.096z"/>
	<path fill="#BE6F72" d="M320.444,80.796c0.442-0.431,0.841-0.903,1.191-1.412c0.378-0.629,0.678-1.302,0.896-2.003l2.6-7.374
		c0.412-1.166,0.824-2.336,1.345-3.47c0.538-1.223,1.175-2.402,1.762-3.585c1.51-3.114,2.679-6.383,3.482-9.749
		c0.142-0.463,0.189-0.949,0.14-1.43c-0.126-0.775-0.714-1.38-1.273-1.932c-0.563-0.609-1.206-1.139-1.91-1.578
		c-0.713-0.444-1.575-0.583-2.393-0.386c-1.147,0.337-1.869,1.511-2.134,2.689c-0.265,1.179-0.166,2.384-0.277,3.586
		c-0.162,1.721-0.754,3.384-0.897,5.11c-0.075,1,0,2.008-0.121,3.003c-0.22,1.306-0.677,2.563-1.345,3.707
		c-1.456,2.726-3.424,5.145-5.795,7.127c-0.65,0.479-1.235,1.042-1.738,1.672c-0.423,0.63-0.708,1.342-0.839,2.088
		c-0.299,1.138-0.169,2.345,0.362,3.393c0.731,1.247,2.135,1.793,3.474,2.071C318.785,82.701,319.202,82.082,320.444,80.796z"/>
	<path fill="#3F3D56" d="M285.688,24.176c0.79-1.482,2.389-2.35,4.062-2.201c1.681,0.297,3.048,1.524,3.523,3.165
		c0.211,0.667,0.296,1.407,0.663,1.981c0.555,0.865,1.587,1.116,2.357,1.744c0.93,0.863,1.473,2.065,1.506,3.334
		c0.043,1.283-0.16,2.563-0.596,3.77c-0.186,0.515-0.336,1.042-0.448,1.578c-0.09,0.52-0.1,1.049-0.18,1.568
		c-0.2,1.362-0.942,2.585-2.058,3.393c-0.156,0.128-0.352,0.199-0.556,0.202c-0.35-0.041-0.564-0.449-0.694-0.816
		c-0.713-2.058-0.543-4.572-1.855-6.212c-0.598-0.662-1.319-1.2-2.125-1.582c-0.328-0.212-0.697-0.352-1.084-0.409
		c-0.569,0.031-1.115,0.23-1.569,0.574c-0.946,0.634-1.996,1.098-3.102,1.372c-1.118,0.265-2.296,0.011-3.205-0.69
		c-0.618-0.512-1.07-1.278-1.757-1.677c-0.686-0.399-1.403-0.376-2.079-0.65c-1.565-0.665-2.295-2.473-1.63-4.039
		c0.101-0.234,0.229-0.455,0.383-0.658c0.448-0.537,1.111-0.843,1.51-1.438c0.517-0.771,0.472-1.829,0.718-2.752
		c0.296-1.186,1.146-2.155,2.281-2.604c1.106-0.375,2.33-0.12,3.192,0.668c0.448,0.403,0.807,0.923,1.245,1.345
		c0.881,0.843,2.131,1.181,3.317,0.896"/>
	<path opacity="0.1" enable-background="new    " d="M293.057,90.15c-0.534,0.476-0.722,1.229-0.476,1.901
		c0.1,0.21,4.725-0.682,5.213-0.749c1.219-0.175,3.357-0.09,4.179-1.206c1.461-1.977-3.066-1.537-3.896-1.466
		C296.499,88.766,294.258,88.981,293.057,90.15z"/>
	<path fill="#3F3D56" d="M250.978,32.33c-0.198,0.883-0.313,1.784-0.342,2.689c-1.344,0.273-2.742-0.175-4.034-0.623l-3.706-1.264
		c-0.468-0.299-1.087-0.184-1.416,0.264c-0.598,0.619-1.417,1.793-2.242,2.488c-0.132-0.014-0.263-0.043-0.39-0.085
		c-0.622-0.26-0.528-1.224-0.08-1.73s1.111-0.789,1.52-1.345c0.189-0.33,0.402-0.646,0.637-0.946c0.3-0.257,0.659-0.437,1.043-0.524
		c2.587-0.762,5.321-0.865,7.957-0.301c0.448,0.099,0.96,0.278,1.094,0.713C251.062,31.887,251.047,32.115,250.978,32.33z"/>
	<path opacity="0.1" enable-background="new    " d="M250.978,32.33c-0.198,0.883-0.313,1.784-0.342,2.689
		c-1.344,0.273-2.742-0.175-4.034-0.623l-3.706-1.264c-0.468-0.299-1.087-0.184-1.416,0.264c-0.598,0.619-1.417,1.793-2.242,2.488
		c-0.132-0.014-0.263-0.043-0.39-0.085c-0.622-0.26-0.528-1.224-0.08-1.73s1.111-0.789,1.52-1.345
		c0.189-0.33,0.402-0.646,0.637-0.946c0.3-0.257,0.659-0.437,1.043-0.524c2.587-0.762,5.321-0.865,7.957-0.301
		c0.448,0.099,0.96,0.278,1.094,0.713C251.062,31.887,251.047,32.115,250.978,32.33z"/>
	<path opacity="0.1" enable-background="new    " d="M284.886,117.425c0.646,0.215,1.344,0.529,1.563,1.174l-5.189-1.317
		l-2.689-0.686c-0.475-0.121-2.179-0.26-2.492-0.631c-0.448-0.547,1.144-0.171,1.43-0.13c0.869,0.13,1.739,0.264,2.604,0.421
		C281.744,116.546,283.313,117.026,284.886,117.425z"/>
	<path opacity="0.1" enable-background="new    " d="M286.898,122.02c-0.449-0.3-1.735-0.265-2.286-0.395
		c-0.807-0.193-1.601-0.449-2.394-0.695c-1.609-0.524-3.205-1.121-4.859-1.505c-0.305-0.068-1.345-0.085-1.295-0.471
		c0.049-0.385,1.04-0.52,1.287-0.538c1.465-0.108,3.293,0.578,4.656,1.067C283.745,120.105,285.39,120.958,286.898,122.02z"/>
	<path opacity="0.1" enable-background="new    " d="M283.608,113.328c-1.646-0.448-3.138-1.47-4.832-1.667
		c-0.442,0.016-0.876-0.116-1.232-0.376c-0.2-0.196-0.337-0.445-0.398-0.718c1.133-0.058,2.451,0.421,3.481,0.874
		c0.567,0.244,1.113,0.535,1.633,0.87C282.636,112.54,283.2,113.198,283.608,113.328z"/>
	<path fill="#3F3D56" d="M314.967,73.194c-0.575,3.852,1.765,7.542,5.495,8.664c-0.22,1.063-1.319,1.65-2.094,2.408
		c-1.094,1.062-1.658,2.653-2.949,3.46c-1.439,0.896-3.29,0.547-4.931,0.17c-0.149-0.017-0.286-0.089-0.386-0.202
		c-0.034-0.054-0.058-0.113-0.071-0.175c-0.542-1.985-0.896-4.105-0.342-6.095c0.449-1.695,1.525-3.138,2.387-4.635
		C312.936,75.292,313.016,73.688,314.967,73.194z"/>
	<path fill="#3F3D56" d="M274.89,47.493c-1.733,0.126-3.419,0.639-4.931,1.501c-1.004,0.574-2.034,1.345-3.182,1.206
		c-0.677-0.076-1.345-0.448-2.003-0.269c-0.371,0.149-0.718,0.355-1.027,0.609c-0.318,0.254-0.748,0.322-1.129,0.18l-0.448,6.203
		c-0.171,2.357-0.337,4.765,0.229,7.064c0.291,1.174,0.932,2.241,1.004,3.434c0.071,1.192-0.036,2.416,0.05,3.622
		c0.08,1.116,0.326,2.214,0.389,3.331c0.126,2.106-0.395,4.195-0.896,6.244c-0.758,3.021-1.215,6.109-2.689,8.843
		c-0.413,0.758-0.896,1.529-0.896,2.39c0,0.107,0,0.21,0.026,0.313c-0.448,0.246-0.864,0.479-1.246,0.721
		c-0.852,0.552-1.762,1.166-2.111,2.121c-0.282,0.775-0.152,1.663-0.493,2.412c-0.341,0.748-1.121,1.282-1.291,2.088
		c-0.12,0.588,0.113,1.206,0,1.793c-0.101,0.304-0.184,0.613-0.246,0.928c-0.045,0.673,0.524,1.215,1.09,1.582
		c0.823,0.543,1.732,0.943,2.688,1.184l2.677-10.624l0,0c2.439-4.51,4.469-9.231,6.064-14.105c0.456-1.593,1.042-3.146,1.752-4.644
		c0.508-0.847,0.956-1.728,1.345-2.636c0.407-1.129,0.448-2.354,0.646-3.546c0.234-1.391,0.586-2.761,1.054-4.092
		c0.484-1.438,1.045-2.873,1.143-4.383c0.148-2.16-0.636-4.442,0.197-6.441c0.354-0.749,0.814-1.441,1.367-2.058
		c1.155-1.417,2.21-2.9,3.366-4.316C276.786,47.506,275.787,47.439,274.89,47.493z"/>
	<g opacity="0.1">
		<path d="M287.521,22.701l-0.56,0.04l-0.063,0.045C287.108,22.778,287.316,22.75,287.521,22.701z"/>
		<path d="M297.777,32.006c-0.094,0.891-0.287,1.769-0.574,2.618c-0.186,0.515-0.336,1.042-0.448,1.578
			c-0.09,0.52-0.1,1.049-0.18,1.568c-0.2,1.362-0.942,2.585-2.058,3.393c-0.156,0.128-0.352,0.199-0.556,0.202
			c-0.35-0.041-0.564-0.449-0.694-0.816c-0.713-2.057-0.543-4.571-1.855-6.212c-0.598-0.661-1.319-1.199-2.125-1.582
			c-0.328-0.212-0.697-0.352-1.084-0.409c-0.569,0.031-1.115,0.23-1.569,0.574c-0.946,0.634-1.996,1.099-3.102,1.372
			c-1.118,0.265-2.296,0.011-3.205-0.69c-0.618-0.512-1.07-1.278-1.757-1.677c-0.686-0.399-1.403-0.377-2.079-0.65
			c-0.857-0.366-1.501-1.102-1.749-1.999c-0.016-0.056-0.028-0.113-0.036-0.17c-0.111,0.5-0.1,1.02,0.036,1.515
			c0.248,0.898,0.892,1.633,1.749,1.999c0.676,0.274,1.438,0.278,2.079,0.65s1.139,1.165,1.757,1.677
			c0.909,0.701,2.087,0.955,3.205,0.69c1.105-0.273,2.155-0.737,3.102-1.372c0.454-0.344,1-0.543,1.569-0.574
			c0.387,0.057,0.756,0.196,1.084,0.409c0.795,0.39,1.507,0.932,2.094,1.595c1.313,1.641,1.143,4.155,1.855,6.212
			c0.131,0.372,0.345,0.775,0.695,0.816c0.214,0.001,0.423-0.075,0.586-0.215c1.12-0.81,1.863-2.039,2.062-3.406
			c0.081-0.52,0.09-1.049,0.18-1.569c0.114-0.536,0.264-1.063,0.448-1.578c0.438-1.207,0.639-2.486,0.597-3.769
			C297.794,32.132,297.786,32.069,297.777,32.006z"/>
	</g>
	<path fill="#F7FAFF" d="M269.417,67.972l-0.305,4.092c-0.044,0.556-1.106,13.788-8.942,29.251
		c-6.724,13.263-19.808,30.538-44.508,40.247c-1.928,0.762-3.928,1.473-6.003,2.133l-2.313-7.261
		c5.807-1.827,11.399-4.273,16.684-7.298c12.59-7.27,22.38-17.646,29.206-30.999c3.622-7.109,6.204-14.703,7.665-22.546h-28.104
		v-7.62H269.417z"/>
	<path fill="#F7FAFF" d="M212.636,141.566c24.697-9.709,37.785-26.978,44.505-40.242c7.835-15.463,8.9-28.687,8.941-29.251
		l0.306-4.092h3.138l-0.306,4.092c-0.039,0.555-1.106,13.788-8.941,29.251c-6.724,13.264-19.808,30.533-44.505,40.242
		c-1.928,0.762-3.93,1.475-6.007,2.139l-0.305-0.955C210.544,142.364,211.602,141.971,212.636,141.566z"/>
	<path fill="#F7FAFF" d="M163.188,136.435l-2.313,7.261c-2.077-0.662-4.079-1.376-6.005-2.138
		c-24.699-9.708-37.787-26.979-44.506-40.242c-7.835-15.464-8.901-28.687-8.942-29.251l-0.305-4.092h36.603v7.62H109.61
		c1.47,7.844,4.059,15.437,7.688,22.546c6.826,13.353,16.611,23.729,29.202,30.995C151.785,132.16,157.379,134.607,163.188,136.435z
		"/>
	<path fill="#F7FAFF" d="M157.889,141.566c-24.696-9.709-37.785-26.978-44.504-40.242c-7.834-15.463-8.901-28.687-8.942-29.251
		l-0.305-4.092H101l0.306,4.092c0.04,0.555,1.106,13.788,8.941,29.251c6.724,13.264,19.808,30.533,44.505,40.242
		c1.927,0.762,3.929,1.475,6.006,2.139l0.305-0.955C159.984,142.364,158.927,141.971,157.889,141.566z"/>
	<path fill="#F7FAFF" d="M227.548,206.627v41.09h-84.565v-41.09l2.688-3.586c27.404-9.727,32.958-35.092,34.065-45.127
		c0.164-1.388,0.259-2.781,0.281-4.178h10.457c0.024,1.396,0.119,2.79,0.283,4.178c1.125,10.035,6.678,35.41,34.065,45.127
		L227.548,206.627z"/>
	<rect x="142.982" y="206.627" fill="#F7FAFF" width="84.565" height="5.155"/>
	<path opacity="0.1" fill="#FFFFFF" enable-background="new    " d="M150.153,203.041c27.405-9.727,32.958-35.092,34.065-45.127
		c0.166-1.388,0.26-2.781,0.283-4.178h-4.483c-0.022,1.396-0.117,2.79-0.281,4.178c-1.126,10.035-6.679,35.41-34.065,45.127
		l-2.688,3.586v41.09h4.481v-41.09L150.153,203.041z"/>
	<path opacity="0.1" enable-background="new    " d="M130.135,67.972h7.584v7.62h-6.913
		C130.536,73.082,130.312,70.542,130.135,67.972z"/>
	<path opacity="0.1" enable-background="new    " d="M163.188,136.435l-2.313,7.261c-2.077-0.662-4.079-1.376-6.005-2.138
		c-3.171-3.872-5.973-8.032-8.37-12.425C151.785,132.16,157.379,134.607,163.188,136.435z"/>
	<path opacity="0.1" enable-background="new    " d="M207.342,136.435c5.807-1.827,11.4-4.273,16.684-7.298
		c-2.397,4.395-5.199,8.556-8.368,12.43c-1.928,0.762-3.929,1.475-6.002,2.133L207.342,136.435z"/>
	<path opacity="0.1" enable-background="new    " d="M240.391,67.972c-0.177,2.57-0.401,5.11-0.673,7.62h-6.907v-7.62H240.391z"/>
	<path opacity="0.1" enable-background="new    " d="M190.775,157.914c-3.64,0.705-7.382,0.705-11.021,0
		c0.165-1.388,0.259-2.781,0.282-4.178h10.457C190.517,155.133,190.61,156.526,190.775,157.914z"/>
	<path fill="#F7FAFF" d="M131.031,55.35c0.194,56.504,24.398,102.197,54.235,102.197c29.84,0,54.039-45.693,54.235-102.197H131.031z
		"/>
	<path opacity="0.1" fill="#FFFFFF" enable-background="new    " d="M140.668,55.35h-9.637
		c0.194,56.504,24.398,102.197,54.235,102.197c1.615-0.004,3.227-0.14,4.818-0.408C162.502,152.53,140.853,108.779,140.668,55.35z"
		/>
	<rect x="156.504" y="222.355" fill="#3A539B" width="57.521" height="14.791"/>
	<polygon opacity="0.1" fill="#FFFFFF" enable-background="new    " points="159.194,224.373 214.025,224.373 214.025,222.355 
		156.504,222.355 156.504,237.146 159.194,237.146 	"/>
	
		<linearGradient id="SVGID_2_" gradientUnits="userSpaceOnUse" x1="-296.8096" y1="2341.4355" x2="-197.1851" y2="2341.4355" gradientTransform="matrix(1 0 0 -1 298 2482.2598)">
		<stop  offset="0" style="stop-color:#808080;stop-opacity:0.25"/>
		<stop  offset="0.54" style="stop-color:#808080;stop-opacity:0.12"/>
		<stop  offset="1" style="stop-color:#808080;stop-opacity:0.1"/>
	</linearGradient>
	<path fill="url(#SVGID_2_)" d="M100.354,109.904c-1.035-0.345-7.13-5.168-7.593-7.351c-0.461-2.183,3.224-22.519,3.224-22.519
		s-0.341,0-0.897-0.067V79.64l0.758-26.714c0,0,3.106-17.929-2.761-16.885c-5.867,1.044-2.187,16.885-2.187,16.885
		s-0.667,8.042-1.139,10.453c-0.449,2.326-2.501,11.802-1.103,14.746c0.052,0.105,0.109,0.207,0.171,0.305l0,0
		c0,0,0.233,10.108-2.3,11.488c-2.415,1.313-3.419,7.925-3.505,8.516l-0.13-0.053l0,0c-0.722-0.452-1.355-1.03-1.87-1.708
		c-0.053-0.067-0.093-0.139-0.143-0.211c3.42-3.848,3.305-9.679-0.264-13.388c-0.801-0.832-1.739-1.517-2.774-2.026
		c-0.03-0.856-0.233-1.698-0.597-2.474c-1.166-2.492-7.62-5.751-12.205-5.827c-2.115-0.063-3.85,0.538-4.482,2.192
		c-0.323,0.838-0.224,1.792-0.358,2.662c-0.269,1.793-1.422,3.196-2.9,4.312c-0.598-0.667-1.244-1.288-1.932-1.86
		c-1.499-1.147-4.483-4.931-4.483-4.931s-9.318-9.65-10.009-12.295c-0.69-2.645-10-18.525-12.07-15.759
		c-2.071,2.766,7.131,14.818,7.131,14.818s1.748,4.379,3.093,5.858c1.344,1.479,11.653,16.45,11.653,16.45l0.493,1.022
		c-2.179,1.147-4.168,2.608-4.873,4.886c-1.03,3.352,1.224,6.723,2.784,9.861c3.04,6.123,3.473,13.931-0.449,19.524
		c-3.514,4.939-9.609,7.289-15.316,9.341c2.756,2.164,6.18,3.301,9.683,3.214c-1.318,3.819-5.989,5.083-9.969,5.79
		c2.088,2.009,5.079,2.74,7.947,3.184c1.405,0.238,2.829,0.352,4.253,0.336h0.351l0.349-0.027c0.486-0.032,0.969-0.093,1.448-0.184
		c2.07-0.421,4.082-1.551,5.14-3.379c0.896-1.564,1.211-3.699,2.838-4.483c0.423-0.19,0.88-0.299,1.344-0.317h-0.048
		c0.303,0,0.617,0,0.922,0l6.782,0.066c0.282,0,0.574,0,0.865,0c1.914-0.044,3.958-0.375,4.93-1.958
		c0.4-0.769,0.611-1.622,0.614-2.487c0.143-2.147,0-4.357,0.059-6.522c0.578,3.94,1.183,10.081-0.256,12.349
		c-1.168,1.719-2.584,3.254-4.204,4.559c-0.408,0.342-0.78,0.724-1.112,1.139c-0.22,0.156-0.351,0.242-0.351,0.242l-0.139,0.417
		c-0.511,0.774-0.88,1.634-1.093,2.536c-0.078,0.232-0.108,0.479-0.085,0.723c0.157,0.318-1.12,1.631-0.749,2.183
		c-3.192,3.742-3.796,9.413-3.796,9.413l-5.827,8.848c-2.995,7.867-7.477,8.674-7.477,8.674s-10.529-7.064-10.816-7.41
		c-0.287-0.345-4.312-2.07-4.312-2.07c-0.475-0.832-1.199-1.494-2.071-1.892c-1.38-0.574-1.497-2.69-1.497-2.69
		c-0.17-4.997-3.106-5.378-3.106-5.378c-2.366-0.202-4.173,0.22-5.563,0.991l-0.421,0.03c-2.035,0.167-4.482,0.35-7.172,0.53
		c-7.481,0.492-9.26,5.338-9.26,5.338s-0.919,1.035,0.287,2.156c1.206,1.12,8.924,0,9.251-0.027
		c-0.588,0.064-1.183,0.022-1.757-0.121c1.214-0.045,2.886-0.09,4.312-0.09h0.345c-0.09,0.756-0.133,1.516-0.13,2.277
		c0,1.434,3.967,2.353,3.967,2.353l12.081,10.759c0,0,7.592,3.393,12.424,8.273c4.833,4.881,9.104,0.668,9.104,0.668
		c5.116-1.265,19.83-19.055,19.843-19.072l0,0c0,0.52,0.309,17.821,0.897,21.295l0,0c0.022,0.177,0.066,0.35,0.129,0.516
		c0.689,1.492-0.233,5.572-0.632,7.293c-0.254,1.44-0.353,2.904-0.292,4.365c0,0-5.517,21.066-5.061,22.918
		c0.458,1.852-2.989,10.453-2.989,10.453v7.172l0.6-0.031c-0.078,0.115-0.149,0.235-0.215,0.358l-0.04,0.076
		c0,0,3.679,0.802,6.153,0.573c2.475-0.229,6.725,1.905,6.725,1.905s1.438,0.681,5.866,0.968c4.428,0.287,4.428-1.953,4.428-1.953
		c-0.506-3.053-7.503-4.075-7.718-4.105c-0.565-0.355-1.094-0.74-1.529-1.072l-0.089-0.072c0.029-0.066,0.055-0.135,0.077-0.205
		c0.749-3.049-3.393-4.371-3.393-4.371v-0.744c2.689-1.381,3.222-10.855,3.222-10.855s4.034-11.717,4.598-13.672
		c0.566-1.953,0-4.881,0-4.881l0.404-2.527c0,0,0.865-1.721,0.865-2.066c0.112-0.875,0.449-1.706,0.977-2.412
		c0.632-0.748-0.689-2.527-0.689-2.527l1.15-2.985V187.9l2.689-11.887c0,0,2.82-13.846,1.843-18.378
		c-0.978-4.532,1.152-6.835,1.152-6.835c-0.193,0.1-0.391,0.19-0.592,0.269c0.27-0.622,0.501-1.261,0.694-1.909l6.052,0.748v0.09
		h2.182c0,0-0.69-8.516-0.69-11.949s2.326-15.756,2.326-15.756S101.391,110.25,100.354,109.904z M73.493,99.962
		c0,0.336-0.032,0.686-0.055,1.044l-0.12,0.184l-0.224-0.188l-0.274,0.426l-0.081,0.041c-0.591-0.304-0.896-2.048-1.322-1.672
		l-0.059,0.049c-0.093-0.107-0.188-0.139-0.286-0.049l-0.089,0.077c0-0.13,0-0.266,0-0.399c0.819,0.211,1.663,0.318,2.509,0.318
		C73.497,99.851,73.493,99.909,73.493,99.962z M93.618,139.621h0.131l-0.217,0.564C93.56,139.998,93.587,139.814,93.618,139.621z
		 M71.525,241.266l-0.825-0.205l0.449-0.076l0.417,0.272l0.05,0.036L71.525,241.266z M79.951,240.061
		c-0.272-0.144-0.551-0.309-0.819-0.48C79.221,239.631,79.575,239.814,79.951,240.061z"/>
	<polygon fill="#F86D70" points="96.594,131.154 91.167,145.301 92.484,145.301 87.379,149.37 96.594,150.518 	"/>
	<polygon opacity="0.1" enable-background="new    " points="96.594,131.154 91.167,145.301 89.799,144.933 87.379,149.37 
		96.594,150.518 	"/>
	<polygon fill="#F86D70" points="88.083,140.204 96.594,140.204 99.718,114.498 88.083,114.498 	"/>
	<polygon opacity="0.1" enable-background="new    " points="88.083,140.204 96.594,140.204 99.718,114.498 88.083,114.498 	"/>
	<path fill="#FBBEBE" d="M71.458,120.585l1.838-0.31l4.222-0.717c0,0,12.681-2.86,15.297-3.093c1.587-0.209,3.132-0.65,4.591-1.309
		c0.686-0.296,1.12-0.52,1.12-0.52l-4.567-8.341l-7.086-5.253c0,0-4.482-0.955-6.379-3.563c-0.86-1.141-1.08-2.64-0.587-3.98
		C81.064,89.913,73,96.928,73,96.928s0.076,1.681,0,3.823c0,0.421-0.041,0.861-0.072,1.309c0,0.296-0.041,0.591-0.072,0.896
		c-0.197,2.129-0.601,4.321-1.399,5.629C69.508,111.787,71.458,120.585,71.458,120.585z"/>
	<path opacity="0.1" enable-background="new    " d="M73,100.93h0.179c0.322,0,0.582-0.686,0.896-0.717
		c2.523-0.242,4.828-0.771,6.428-2.56c-0.858-1.14-1.08-2.637-0.587-3.976c1.156-3.585-6.908,3.425-6.908,3.425
		S73.095,98.788,73,100.93z"/>
	<path fill="#FBBEBE" d="M63.184,90.765c-0.002,5.424,4.393,9.822,9.817,9.825c0.002,0,0.006,0,0.008,0c0.323,0,0.641,0,0.959-0.045
		c5.4-0.53,9.348-5.337,8.818-10.737c-0.529-5.4-5.336-9.349-10.736-8.819C67.019,81.482,63.186,85.71,63.184,90.765z"/>
	<path fill="#3F3D56" d="M60.167,75.852c-0.323,0.834-0.224,1.766-0.354,2.649c-0.48,3.187-3.72,5.096-6.651,6.432
		c-2.931,1.335-6.239,2.917-7.171,5.997c-1.023,3.331,1.208,6.67,2.76,9.794c3.021,6.087,3.452,13.85-0.448,19.417
		c-3.465,4.931-9.503,7.271-15.187,9.324c2.735,2.152,6.135,3.283,9.614,3.2c-1.304,3.796-5.943,5.056-9.896,5.755
		c2.075,2,5.047,2.726,7.893,3.164c2.075,0.322,4.206,0.534,6.276,0.117c2.07-0.416,4.034-1.542,5.1-3.361
		c0.897-1.556,1.203-3.676,2.82-4.461c0.73-0.286,1.517-0.402,2.3-0.336l6.723,0.072c2.093,0,4.572-0.162,5.653-1.949
		c0.398-0.764,0.607-1.613,0.609-2.475c0.29-4.411-0.556-9.072,1.258-13.098c0.547-1.215-2.961-3.137-2.594-4.423
		c1.264-4.425,1.582-7.907,1.569-12.51c0-3.563,2.316-6.634,4.23-9.642c1.914-3.008,3.515-6.804,2.004-10.031
		C74.972,75.888,62.179,70.657,60.167,75.852z"/>
	<path fill="#FBBEBE" d="M69.118,239.976l1.713,1.134l0.265,0.175l0.05,0.031l2.029,1.345l4.743,0.798l4.168-0.287
		c0,0,1.202-2.51-0.685-2.451c-0.604-0.032-1.194-0.202-1.721-0.498l-0.26-0.13l0,0c-0.274-0.144-0.548-0.305-0.816-0.476l0,0
		c-0.561-0.353-1.089-0.739-1.516-1.066c-0.628-0.484-1.044-0.852-1.044-0.852L69.118,239.976z"/>
	<path opacity="0.1" enable-background="new    " d="M70.853,241.109l0.264,0.175l0.05,0.031l2.03,1.345l4.741,0.798l4.169-0.287
		c0,0,1.201-2.51-0.687-2.451c-0.604-0.032-1.193-0.202-1.721-0.498c0.332,0.261,0.61,0.542,0.637,0.78
		c0.077,0.641-3.084,1.792-3.084,1.792l-4.455-1.179c0,0-0.757-0.215-1.792-0.483l-0.099-0.026L70.853,241.109z"/>
	<path fill="#3F3D56" d="M63.233,242.203c0,0,3.653,0.798,6.109,0.568c2.457-0.229,6.688,1.888,6.688,1.888s1.43,0.672,5.826,0.96
		c4.398,0.286,4.398-1.945,4.398-1.945c-0.503-3.035-7.45-4.035-7.665-4.08l0,0l0,0l0,0c0.085,0.045,0.448,0.229,0.815,0.476l0,0
		c0.493,0.323,1.027,0.744,1.066,1.085c0.077,0.636-3.083,1.793-3.083,1.793l-4.456-1.174c0,0-0.757-0.221-1.793-0.489h-0.099
		c-1.536-0.418-3.095-0.74-4.669-0.964c-1.919-0.206-2.901,1.426-3.103,1.793C63.254,242.143,63.242,242.172,63.233,242.203z"/>
	<path fill="#FBBEBE" d="M5.653,161.598l1.941,1.488c0,0,0.565-0.026,1.407-0.054h0.269c1.206-0.045,2.869-0.089,4.281-0.089
		c0.913-0.042,1.827,0.01,2.73,0.152c0.968,0.34,2.689-5.541,2.689-5.541l-1.945-0.448l-0.645-0.152l-0.448-0.107l-1.583-0.372
		l-4.796,0.547l-3.371,2.17L5.653,161.598z"/>
	<path opacity="0.1" enable-background="new    " d="M5.653,161.598l1.941,1.488c0,0,0.565-0.026,1.407-0.054
		c-0.386-0.149-0.705-0.435-0.896-0.802c-1.255-3.482,4.971-4.971,4.971-4.971l2.9-0.126l0.565-0.027h0.448l-0.646-0.152
		l-0.448-0.107l-1.583-0.372l-4.796,0.547l-3.371,2.17L5.653,161.598z"/>
	<path fill="#3F3D56" d="M1.826,163.171c1.174,1.085,8.866,0,9.189-0.026c-0.584,0.065-1.175,0.024-1.744-0.121
		c-0.57-0.102-1.064-0.456-1.345-0.964c-1.255-3.487,4.971-4.971,4.971-4.971l2.9-0.126l0.56-0.026l7.051-0.305l0.34-1.94
		c0,0-2.29,0.215-5.885,0.502c-2.021,0.165-4.482,0.35-7.14,0.523c-7.427,0.493-9.193,5.313-9.193,5.313S0.629,162.06,1.826,163.171
		z"/>
	<path fill="#FBBEBE" d="M88.087,79.039c0.047,0.106,0.104,0.208,0.17,0.304l1.713,2.511l4.455,0.448l0.049-1.766l0.749-26.571
		c0,0,3.083-17.822-2.744-16.795c-5.827,1.026-2.169,16.795-2.169,16.795s-0.664,7.996-1.13,10.399
		C88.728,66.686,86.697,76.125,88.087,79.039z"/>
	<path fill="#FBBEBE" d="M78.087,145.036l1.269,2.169l2.837,4.854c0,0,5.146,1.888,6.463,0.448c0.723-0.785,1.502-3.522,2.049-5.827
		c0.449-1.864,0.749-3.438,0.749-3.438L78.087,145.036z"/>
	<path opacity="0.1" enable-background="new    " d="M78.087,145.036l1.269,2.169c0.08-0.068,0.152-0.145,0.215-0.229
		c1.434-1.828,7.75-0.39,11.134-0.273c0.449-1.863,0.749-3.438,0.749-3.438L78.087,145.036z"/>
	<path opacity="0.1" enable-background="new    " d="M13.551,162.934c0.913-0.041,1.827,0.01,2.73,0.152
		c0.968,0.341,2.689-5.539,2.689-5.539l-2.59-0.61l7.05-0.305l0.341-1.94c0,0-2.29,0.215-5.885,0.502
		c-0.743,0.428-1.406,0.98-1.959,1.636l-0.107,0.134C14.318,158.806,13.762,161.182,13.551,162.934z"/>
	<path opacity="0.1" enable-background="new    " d="M69.118,239.976l1.978,1.309c2.949-0.534,5.643-1.372,5.961-2.689
		c0.001-0.021,0.001-0.042,0-0.063c-0.627-0.484-1.044-0.852-1.044-0.852L69.118,239.976z"/>
	<path opacity="0.1" enable-background="new    " d="M63.273,242.127c2.605-0.13,5.2-0.408,7.772-0.834
		c-1.536-0.422-3.097-0.746-4.674-0.973C64.457,240.114,63.475,241.746,63.273,242.127z"/>
	<path fill="#3F3D56" d="M13.766,165.197c0,1.43,3.94,2.344,3.94,2.344l11.999,10.682c0,0,7.54,3.371,12.335,8.225
		c4.796,4.854,9.027,0.687,9.027,0.687c5.083-1.255,19.722-18.965,19.722-18.965s0.341,20.225,1.026,21.708
		c0.686,1.483-0.229,5.541-0.627,7.257c-0.252,1.432-0.349,2.886-0.288,4.339c0,0-5.481,20.963-5.024,22.793
		c0.458,1.828-2.971,10.398-2.971,10.398v7.14c0,0,13.423-0.515,14.165-3.541c0.739-3.025-3.367-4.343-3.367-4.343v-0.744
		c2.689-1.372,3.196-10.793,3.196-10.793s4.002-11.654,4.573-13.596c0.568-1.94,0-4.858,0-4.858l0.398-2.511
		c0,0,0.856-1.716,0.856-2.057c0.111-0.869,0.447-1.696,0.972-2.398c0.628-0.744-0.685-2.514-0.685-2.514l1.143-2.973v-3.254
		l2.689-11.824c0,0,2.801-13.77,1.829-18.283c-0.973-4.514,1.143-6.795,1.143-6.795c-4.585,2.402-6.898-2.945-7.655-5.244
		c-0.193-0.592-0.287-0.986-0.287-0.986s-6.298-2.322-12.162-1.766c-1.19,0.096-2.363,0.345-3.491,0.739
		c-6.513,2.345-7.539,12.053-7.539,12.053l-5.769,8.799c-2.973,7.826-7.428,8.624-7.428,8.624s-10.452-7.023-10.757-7.369
		c-0.305-0.346-4.286-2.057-4.286-2.057c-0.47-0.829-1.19-1.488-2.058-1.884c-1.371-0.573-1.482-2.688-1.482-2.688
		c-0.171-4.971-3.084-5.379-3.084-5.379C13.708,153.319,13.766,163.771,13.766,165.197z"/>
	<rect x="71.919" y="118.134" fill="#F86D70" width="6.167" height="19.134"/>
	<rect x="71.919" y="118.134" opacity="0.1" enable-background="new    " width="6.167" height="19.134"/>
	<path opacity="0.1" enable-background="new    " d="M88.083,78.999c-0.001,0.014-0.001,0.027,0,0.041
		c0.048,0.106,0.105,0.208,0.17,0.304l1.712,2.511l4.456,0.448l0.05-1.766C93.08,80.429,89.916,80.047,88.083,78.999z"/>
	<path fill="#F86D70" d="M88.258,79.343c0,0,0.228,10.05-2.286,11.421c-2.515,1.372-3.492,8.516-3.492,8.516
		s7.619,5.012,9.319,7.217c1.698,2.205,5.597,7.459,4.795,8.714s1.945,6.97,1.945,6.97s-5.029,10.282-3.886,14.169
		c1.144,3.886,1.255,14.164,1.255,14.164h2.174c0,0-0.686-8.454-0.686-11.883s2.282-15.652,2.282-15.652s1.031-11.994,0-12.335
		c-1.032-0.34-7.082-5.141-7.539-7.314c-0.458-2.174,3.199-22.412,3.199-22.412S90.655,80.716,88.258,79.343z"/>
	<path opacity="0.1" enable-background="new    " d="M71.804,116.358c0.208,1.398,0.717,2.734,1.492,3.917l4.222-0.717
		c0,0,12.681-2.86,15.297-3.093c1.587-0.209,3.132-0.65,4.591-1.309c-1.005-3.56-2.966-6.777-5.67-9.301l-1.609-1.493
		c-2.372-2.201-5.12-3.958-8.113-5.186c0.188,0.157,13.491,11.516,10.578,13.743c-2.914,2.228-10.757-3.196-10.757-3.196
		l-8.92-7.664l-0.322-0.278l-0.516,0.803c0.262,0.108,0.518,0.23,0.766,0.368c3.041,1.668,5.296,4.473,6.276,7.799
		C80.952,116.914,71.804,116.358,71.804,116.358z"/>
	<path fill="#444053" d="M69.059,144.92c0,0,8.455,4.684,10.507,2.057c0.448-0.578,1.394-0.828,2.573-0.896
		c-0.193-0.592-0.287-0.985-0.287-0.985s-6.297-2.321-12.16-1.767C69.306,144.297,69.059,144.92,69.059,144.92z"/>
	<path fill="#E8E8F0" d="M72.951,101.791l9.242,7.952c0,0,7.813,5.442,10.758,3.196c2.944-2.245-10.583-13.748-10.583-13.748l0,0
		c2.988,1.231,5.732,2.983,8.108,5.173l1.61,1.493c4.231,3.922,5.186,3.922,5.33,9.686c0.035,1.421-0.449,3.46-0.821,3.828
		c-1.371,1.345-2.33,11.112-2.12,12.254c0.21,1.143-2.555,11.009-1.659,13.752c0.897,2.743-11.205-1.371-13.253,1.26
		s-10.503-2.058-10.503-2.058s4.685-11.999,5.828-12.798c1.144-0.797,2.515-6.969,0-9.825c-2.514-2.855-2.738-5.598-2.738-5.598
		s9.143,0.564,7.31-5.598c-1.044-3.615-3.609-6.596-7.029-8.167L72.951,101.791z"/>
	<path opacity="0.1" enable-background="new    " d="M85.286,122.016c0,0-3.546,6.683-8.131,8.418
		c-0.148,0.053-0.292,0.103-0.448,0.147C71.919,132.037,85.644,124.086,85.286,122.016z"/>
	<path fill="#FBBEBE" d="M35.703,62.889c0,0,1.711,4.343,3.084,5.827c1.371,1.483,11.537,16.337,11.537,16.337l0.86,1.793
		l0.739,1.528l6.514-0.685l0.448-2.627l-0.25-0.305c-0.654-0.784-2.439-2.891-3.635-3.81c-1.485-1.138-4.456-4.908-4.456-4.908
		s-9.25-9.602-9.938-12.228c-0.686-2.627-9.941-18.377-11.995-15.653C26.559,50.886,35.703,62.889,35.703,62.889z"/>
	<g opacity="0.1">
		<path d="M54.6,133.543c-0.782-0.067-1.569,0.047-2.299,0.332c-1.614,0.784-1.919,2.904-2.815,4.46
			c-1.048,1.819-3.047,2.945-5.104,3.361c-0.41,0.079-0.823,0.137-1.238,0.171c1.311,0.127,2.631,0.07,3.926-0.171
			c2.058-0.416,4.058-1.542,5.105-3.361c0.898-1.556,1.202-3.676,2.815-4.46c0.425-0.19,0.88-0.297,1.345-0.313L54.6,133.543z"/>
		<path d="M70.52,99.16c0-3.563,2.318-6.634,4.228-9.641c1.91-3.008,3.515-6.804,2.004-10.031
			c-1.291-2.757-9.073-6.455-13.564-5.724c4.397,0.569,9.817,3.464,10.875,5.724c1.511,3.227-0.094,7.023-2.003,10.031
			c-1.91,3.007-4.235,6.078-4.227,9.641c0,4.6-0.309,8.069-1.573,12.511c-0.363,1.277,3.138,3.208,2.6,4.419
			c-1.82,4.034-0.968,8.687-1.259,13.098c-0.006,0.861-0.217,1.709-0.614,2.473c-0.897,1.475-2.735,1.855-4.522,1.938h1.563
			c2.089,0,4.568-0.162,5.648-1.951c0.398-0.764,0.609-1.611,0.615-2.473c0.291-4.411-0.562-9.068,1.259-13.097
			c0.546-1.211-2.962-3.138-2.6-4.42C70.213,107.246,70.53,103.759,70.52,99.16z"/>
	</g>
	<path opacity="0.1" enable-background="new    " d="M51.185,86.838l0.739,1.529l6.514-0.686l0.448-2.627l-0.25-0.304
		C57.94,85.09,52.736,87.596,51.185,86.838z"/>
	<path opacity="0.1" enable-background="new    " d="M75.231,104.019c0,0-1.599-2.51-2.514-1.829
		c-0.914,0.681-1.269-2.058-1.793-1.601c-0.523,0.458-2.052,1.73-2.689-0.049c-0.498-1.416-5.912-10.376-8.108-13.98
		c-0.564-0.933-0.919-1.506-0.919-1.506s-6.167,3.084-7.65,2.058v2.169l1.255,0.116l6.723,12.551c0,0,2.116,3.366,1.973,4.541
		c-0.144,1.174,2.711,6.315,3.168,6.656s5.378,6.056,5.378,6.056s2.516,12.34,0.341,15.769c-2.174,3.43-5.939,5.939-5.939,5.939
		s-1.134,3.312-0.968,3.657c0.166,0.345-1.318,1.829-0.632,2.286c0.687,0.457,1.601,3.653,1.601,3.653s3.2-5.142,4.93-5.939
		c1.73-0.798,3.945-11.313,3.945-11.313s0.632-6.193,0.681-10.192C74.062,119.061,73.861,104.019,75.231,104.019z"/>
	<path fill="#F86D70" d="M74.887,104.019c0,0-1.595-2.51-2.51-1.829c-0.914,0.681-1.273-2.058-1.793-1.601
		c-0.52,0.458-2.048,1.73-2.689-0.049c-0.501-1.416-5.916-10.376-8.108-13.98l-0.919-1.506c0,0-6.167,3.084-7.655,2.058v2.169
		l1.26,0.116l6.722,12.551c0,0,2.121,3.366,1.973,4.541c-0.148,1.174,2.689,6.315,3.168,6.656c0.48,0.341,5.378,6.056,5.378,6.056
		s2.516,12.34,0.345,15.769c-1.146,1.723-2.54,3.266-4.136,4.58c-1.342,1.107-2.285,2.621-2.689,4.313
		c-0.078,0.23-0.106,0.475-0.081,0.718c0.166,0.341-1.318,1.829-0.632,2.286c0.686,0.457,1.609,3.666,1.609,3.666
		s3.201-5.142,4.93-5.939c1.731-0.797,3.95-11.313,3.95-11.313s0.627-6.194,0.682-10.192
		C73.744,119.088,73.542,104.019,74.887,104.019z"/>
	<path opacity="0.1" enable-background="new    " d="M59.235,156.004c0,0,4.799,0.896,6.722,2.282
		c1.924,1.385-7.311-2.17-7.311-2.17L59.235,156.004z"/>
	<path opacity="0.1" enable-background="new    " d="M70.776,168.169c0,0,5.007,4.173,4.11,7.942
		c-0.896,3.77-3.209,13.255-3.209,13.255L70.776,168.169z"/>
	<path opacity="0.1" enable-background="new    " d="M26.99,160.146c0,0-7.056,0.771-6.599,1.686s6.599-0.843,6.599-0.843V160.146z"
		/>
	<path opacity="0.1" enable-background="new    " d="M81.163,194.848c0,0,0.448,0.57-2.169,0c-2.618-0.57-0.687-2.326-0.687-2.326
		L81.163,194.848z"/>
	<path opacity="0.1" enable-background="new    " d="M80.265,202.732c0,0-3.585,0.568-5.508,0
		C72.834,202.162,80.265,202.732,80.265,202.732z"/>
	<path opacity="0.1" enable-background="new    " d="M72.888,233.578c0,0-0.627-0.686-3.77,0.57
		c-3.142,1.256-4.396,1.313-5.311,0.896C62.893,234.627,72.888,233.578,72.888,233.578z"/>
	<path opacity="0.1" enable-background="new    " d="M76.375,159.173l-4.456,6.199C71.919,165.372,74.318,159.944,76.375,159.173z"
		/>
	<path opacity="0.1" enable-background="new    " d="M67.715,102.19c0,0-0.192,2.057-3.066,2.859
		c-2.874,0.802-3.419,1.452-3.419,1.452"/>
	<path opacity="0.1" enable-background="new    " d="M60.248,87.277c0,0-3.792,2.689-7.75,2.12"/>
	<path opacity="0.1" enable-background="new    " d="M63.134,144.861c0,0,1.107,0.695,3.766-2.344"/>
	<path opacity="0.1" enable-background="new    " d="M90.741,112.638c0.107-0.556-0.278-1.071-0.641-1.506l-0.744-0.896
		c-0.146-0.184-0.31-0.352-0.489-0.502c-0.448-0.345-1.021-0.448-1.488-0.758"/>
</g>
</svg>
