<?xml version="1.0" encoding="utf-8"?>
<!-- Generator: Adobe Illustrator 16.0.0, SVG Export Plug-In . SVG Version: 6.00 Build 0)  -->
<!DOCTYPE svg PUBLIC "-//W3C//DTD SVG 1.1//EN" "http://www.w3.org/Graphics/SVG/1.1/DTD/svg11.dtd">
<svg version="1.1" id="Layer_1" xmlns="http://www.w3.org/2000/svg" xmlns:xlink="http://www.w3.org/1999/xlink" x="0px" y="0px"
	 width="136px" height="40px" viewBox="0 0 136 40" enable-background="new 0 0 136 40" xml:space="preserve">
<g>
	<g>
		<path fill="#0C193D" d="M4.384,19.83v9.676H1.125V4.79h9.116c2.704,0,4.825,0.69,6.358,2.071c1.533,1.381,2.3,3.209,2.3,5.483
			c0,2.399-0.75,4.247-2.249,5.542c-1.5,1.296-3.647,1.944-6.442,1.944H4.384z M4.384,17.165h5.856c1.743,0,3.079-0.411,4.007-1.233
			c0.927-0.822,1.392-2.009,1.392-3.563c0-1.474-0.464-2.653-1.392-3.537c-0.928-0.885-2.202-1.344-3.82-1.378H4.384V17.165z"/>
		<path fill="#0C193D" d="M34.921,13.957c-0.475-0.079-0.99-0.119-1.545-0.119c-2.059,0-3.458,0.877-4.192,2.631v13.037h-3.141
			V11.138h3.056l0.051,2.122c1.029-1.64,2.49-2.461,4.379-2.461c0.612,0,1.075,0.08,1.393,0.238L34.921,13.957L34.921,13.957z"/>
		<path fill="#0C193D" d="M48.583,29.848c-2.49,0-4.515-0.817-6.077-2.455c-1.562-1.636-2.343-3.82-2.343-6.562v-0.576
			c0-1.823,0.348-3.449,1.044-4.881s1.67-2.552,2.92-3.361c1.251-0.809,2.606-1.214,4.066-1.214c2.388,0,4.244,0.787,5.568,2.36
			c1.325,1.573,1.986,3.825,1.986,6.756v1.308H43.303c0.046,1.811,0.575,3.274,1.587,4.389c1.013,1.113,2.301,1.673,3.862,1.673
			c1.11,0,2.048-0.228,2.818-0.681c0.771-0.451,1.443-1.053,2.021-1.799l1.918,1.493C53.97,28.665,51.661,29.848,48.583,29.848z
			 M48.192,13.379c-1.267,0-2.332,0.461-3.191,1.383c-0.859,0.923-1.393,2.216-1.596,3.879h9.202v-0.238
			c-0.091-1.596-0.521-2.833-1.291-3.709S49.505,13.379,48.192,13.379z"/>
		<path fill="#0C193D" d="M78.372,20.525c0,2.795-0.64,5.049-1.918,6.758c-1.28,1.708-3.011,2.563-5.195,2.563
			c-2.229,0-3.982-0.707-5.261-2.121v8.844h-3.142v-25.43h2.869l0.153,2.038c1.28-1.585,3.058-2.377,5.33-2.377
			c2.207,0,3.954,0.832,5.237,2.496s1.927,3.979,1.927,6.943V20.525z M75.232,20.17c0-2.071-0.441-3.707-1.325-4.906
			c-0.882-1.2-2.095-1.8-3.632-1.8c-1.902,0-3.328,0.843-4.278,2.529v8.776c0.939,1.674,2.376,2.514,4.312,2.514
			c1.504,0,2.7-0.598,3.59-1.791C74.788,24.297,75.232,22.523,75.232,20.17z"/>
		<path fill="#0C193D" d="M97.178,29.506c-0.181-0.361-0.328-1.007-0.441-1.936c-1.459,1.519-3.201,2.275-5.229,2.275
			c-1.81,0-3.295-0.513-4.456-1.535c-1.157-1.025-1.739-2.324-1.739-3.896c0-1.912,0.729-3.396,2.182-4.457
			c1.455-1.058,3.501-1.587,6.137-1.587h3.057v-1.443c0-1.097-0.328-1.972-0.983-2.623c-0.656-0.651-1.624-0.976-2.903-0.976
			c-1.121,0-2.06,0.283-2.818,0.849c-0.756,0.566-1.137,1.25-1.137,2.054h-3.158c0-0.917,0.326-1.802,0.978-2.657
			c0.651-0.854,1.534-1.53,2.647-2.028c1.114-0.498,2.342-0.747,3.676-0.747c2.115,0,3.775,0.529,4.975,1.587
			c1.199,1.059,1.822,2.515,1.866,4.372v8.454c0,1.687,0.216,3.027,0.646,4.022v0.271L97.178,29.506L97.178,29.506z M91.967,27.113
			c0.983,0,1.917-0.256,2.801-0.766c0.883-0.509,1.522-1.171,1.918-1.984v-3.771h-2.461c-3.849,0-5.772,1.127-5.772,3.378
			c0,0.985,0.33,1.756,0.985,2.311C90.094,26.835,90.938,27.113,91.967,27.113z"/>
		<path fill="#0C193D" d="M108.243,6.267c0-0.509,0.155-0.939,0.468-1.291c0.309-0.351,0.771-0.526,1.383-0.526
			s1.074,0.175,1.393,0.526c0.315,0.351,0.477,0.781,0.477,1.291c0,0.509-0.16,0.934-0.477,1.273
			c-0.317,0.339-0.78,0.509-1.393,0.509c-0.609,0-1.074-0.17-1.383-0.509C108.398,7.2,108.243,6.775,108.243,6.267z M111.641,29.506
			h-3.142V11.138h3.142V29.506z"/>
		<path fill="#0C193D" d="M119.376,20.17c0-2.818,0.668-5.084,2.003-6.799c1.336-1.714,3.085-2.572,5.246-2.572
			c2.148,0,3.854,0.736,5.109,2.207V3.432h3.141v26.074h-2.886l-0.153-1.969c-1.256,1.539-3.004,2.311-5.245,2.311
			c-2.127,0-3.862-0.873-5.202-2.615c-1.342-1.742-2.013-4.018-2.013-6.824V20.17L119.376,20.17z M122.516,20.525
			c0,2.082,0.433,3.711,1.291,4.89c0.86,1.179,2.049,1.767,3.564,1.767c1.993,0,3.447-0.894,4.363-2.683v-8.438
			c-0.939-1.731-2.383-2.597-4.33-2.597c-1.537,0-2.737,0.594-3.598,1.783C122.947,16.435,122.516,18.195,122.516,20.525z"/>
	</g>
</g>
</svg>
