<?xml version="1.0" encoding="utf-8"?>
<!-- Generator: Adobe Illustrator 16.0.0, SVG Export Plug-In . SVG Version: 6.00 Build 0)  -->
<!DOCTYPE svg PUBLIC "-//W3C//DTD SVG 1.1//EN" "http://www.w3.org/Graphics/SVG/1.1/DTD/svg11.dtd">
<svg version="1.1" id="Layer_1" xmlns="http://www.w3.org/2000/svg" xmlns:xlink="http://www.w3.org/1999/xlink" x="0px" y="0px"
	 width="136px" height="40px" viewBox="0 0 136 40" enable-background="new 0 0 136 40" xml:space="preserve">
<g>
	<path fill="#FFFFFF" d="M4.384,19.83v9.676H1.125V4.79h9.116c2.704,0,4.825,0.69,6.358,2.071c1.533,1.381,2.3,3.209,2.3,5.483
		c0,2.399-0.75,4.247-2.249,5.542c-1.5,1.296-3.647,1.944-6.442,1.944H4.384z M4.384,17.165h5.856c1.743,0,3.079-0.411,4.007-1.233
		c0.927-0.822,1.392-2.009,1.392-3.563c0-1.474-0.464-2.653-1.392-3.537c-0.928-0.885-2.202-1.344-3.82-1.378H4.384V17.165z"/>
	<path fill="#FFFFFF" d="M34.921,13.957c-0.475-0.079-0.99-0.119-1.545-0.119c-2.059,0-3.458,0.877-4.192,2.631v13.037h-3.141
		V11.138h3.056l0.051,2.122c1.029-1.64,2.49-2.461,4.379-2.461c0.612,0,1.075,0.08,1.393,0.238V13.957z"/>
	<path fill="#FFFFFF" d="M48.583,29.847c-2.49,0-4.515-0.817-6.077-2.454c-1.562-1.636-2.343-3.821-2.343-6.562v-0.576
		c0-1.823,0.348-3.449,1.044-4.881s1.67-2.552,2.92-3.361c1.251-0.809,2.606-1.214,4.066-1.214c2.388,0,4.244,0.787,5.568,2.36
		c1.325,1.573,1.986,3.825,1.986,6.756v1.307H43.303c0.046,1.811,0.575,3.275,1.587,4.39c1.013,1.113,2.301,1.672,3.862,1.672
		c1.11,0,2.048-0.228,2.818-0.68c0.771-0.451,1.443-1.053,2.021-1.799l1.918,1.493C53.97,28.665,51.661,29.847,48.583,29.847z
		 M48.192,13.379c-1.267,0-2.332,0.461-3.191,1.383c-0.859,0.923-1.393,2.216-1.596,3.879h9.202v-0.238
		c-0.091-1.596-0.521-2.833-1.291-3.709C50.546,13.818,49.505,13.379,48.192,13.379z"/>
	<path fill="#FFFFFF" d="M78.372,20.526c0,2.795-0.639,5.048-1.918,6.757c-1.28,1.708-3.011,2.563-5.195,2.563
		c-2.229,0-3.982-0.707-5.261-2.122v8.844h-3.142v-25.43h2.869l0.153,2.038c1.28-1.585,3.057-2.377,5.33-2.377
		c2.207,0,3.954,0.832,5.238,2.496c1.283,1.664,1.926,3.979,1.926,6.943V20.526z M75.232,20.17c0-2.071-0.441-3.707-1.325-4.906
		c-0.882-1.2-2.094-1.8-3.632-1.8c-1.902,0-3.328,0.843-4.278,2.529v8.777c0.939,1.674,2.376,2.513,4.311,2.513
		c1.505,0,2.701-0.597,3.591-1.791C74.788,24.297,75.232,22.523,75.232,20.17z"/>
	<path fill="#FFFFFF" d="M97.178,29.506c-0.181-0.362-0.328-1.007-0.441-1.935c-1.46,1.518-3.202,2.275-5.229,2.275
		c-1.81,0-3.295-0.513-4.456-1.536c-1.158-1.025-1.739-2.324-1.739-3.896c0-1.912,0.728-3.397,2.181-4.457
		c1.455-1.058,3.501-1.587,6.137-1.587h3.056v-1.443c0-1.097-0.327-1.972-0.983-2.623s-1.624-0.976-2.903-0.976
		c-1.121,0-2.06,0.283-2.818,0.849c-0.757,0.566-1.138,1.25-1.138,2.054h-3.157c0-0.917,0.326-1.802,0.977-2.657
		c0.651-0.854,1.534-1.53,2.647-2.028c1.115-0.498,2.342-0.747,3.676-0.747c2.116,0,3.775,0.529,4.975,1.587
		c1.199,1.059,1.822,2.515,1.866,4.372v8.454c0,1.687,0.216,3.027,0.646,4.022v0.271H97.178z M91.967,27.113
		c0.983,0,1.917-0.255,2.801-0.765c0.882-0.509,1.522-1.171,1.917-1.985v-3.77h-2.461c-3.848,0-5.772,1.127-5.772,3.378
		c0,0.985,0.33,1.755,0.985,2.31C90.094,26.835,90.938,27.113,91.967,27.113z"/>
	<path fill="#FFFFFF" d="M108.243,6.267c0-0.509,0.156-0.939,0.468-1.291c0.309-0.351,0.772-0.526,1.383-0.526
		c0.611,0,1.074,0.175,1.393,0.526c0.315,0.351,0.476,0.781,0.476,1.291c0,0.509-0.16,0.934-0.476,1.273
		c-0.318,0.339-0.781,0.509-1.393,0.509c-0.61,0-1.074-0.17-1.383-0.509C108.399,7.2,108.243,6.775,108.243,6.267z M111.64,29.506
		h-3.141V11.138h3.141V29.506z"/>
	<path fill="#FFFFFF" d="M119.376,20.17c0-2.818,0.668-5.084,2.003-6.799c1.336-1.714,3.085-2.572,5.246-2.572
		c2.149,0,3.853,0.736,5.109,2.207V3.432h3.141v26.074h-2.886l-0.153-1.969c-1.256,1.539-3.004,2.31-5.245,2.31
		c-2.127,0-3.862-0.873-5.203-2.614c-1.341-1.743-2.012-4.018-2.012-6.825V20.17z M122.516,20.526c0,2.082,0.432,3.711,1.291,4.889
		c0.86,1.179,2.049,1.767,3.564,1.767c1.993,0,3.447-0.894,4.363-2.683v-8.438c-0.939-1.731-2.382-2.597-4.329-2.597
		c-1.538,0-2.738,0.594-3.599,1.783C122.947,16.435,122.516,18.195,122.516,20.526z"/>
</g>
</svg>
