<?xml version="1.0" encoding="utf-8"?>
<!-- Generator: Adobe Illustrator 16.0.0, SVG Export Plug-In . SVG Version: 6.00 Build 0)  -->
<!DOCTYPE svg PUBLIC "-//W3C//DTD SVG 1.1//EN" "http://www.w3.org/Graphics/SVG/1.1/DTD/svg11.dtd">
<svg version="1.1" id="Layer_1" xmlns="http://www.w3.org/2000/svg" xmlns:xlink="http://www.w3.org/1999/xlink" x="0px" y="0px"
	 width="425px" height="480px" viewBox="0 0 425 480" enable-background="new 0 0 425 480" xml:space="preserve">
<g>
	<path fill="#3A3768" d="M418.061,110.034h3.381c0.998,0,1.809,0.809,1.809,1.809V165.9c0,0.998-0.811,1.809-1.809,1.809h-3.381
		c-1,0-1.811-0.811-1.811-1.809v-54.058C416.25,110.843,417.061,110.034,418.061,110.034z"/>
	<path fill="#3A3768" d="M185.503,64.846h0.309c0.999,0,1.809,0.811,1.809,1.809v15.371c0,0.999-0.81,1.809-1.809,1.809h-0.309
		c-0.999,0-1.808-0.81-1.808-1.809V66.654C183.695,65.656,184.504,64.846,185.503,64.846z"/>
	<path fill="#3A3768" d="M185.362,99.615h0.805c0.999,0,1.81,0.811,1.81,1.81v29.43c0,0.999-0.811,1.809-1.81,1.809h-0.805
		c-1,0-1.81-0.81-1.81-1.809v-29.43C183.552,100.426,184.362,99.615,185.362,99.615z"/>
	<path fill="#3A3768" d="M185.433,144.227h0.593c0.999,0,1.809,0.81,1.809,1.809v29.715c0,0.998-0.81,1.809-1.809,1.809h-0.593
		c-0.999,0-1.809-0.811-1.809-1.809v-29.715C183.624,145.036,184.434,144.227,185.433,144.227z"/>
	<path fill="#FFFFFF" d="M216.711,2.1h172.52c17.009,0,30.797,13.788,30.797,30.797v414.209c0,17.008-13.788,30.795-30.797,30.795
		h-172.52c-17.008,0-30.796-13.787-30.796-30.795V32.896C185.915,15.888,199.703,2.1,216.711,2.1z"/>
	<path fill="#527CFF" d="M387.004,14.461h-26.855v3.23c0,8.454-6.854,15.308-15.309,15.308c-0.002,0-0.004,0-0.009,0h-85.404
		c-8.455,0.005-15.312-6.846-15.315-15.299c0-0.003,0-0.007,0-0.009v-3.23H218.97c-10.269,0-18.593,8.324-18.593,18.594l0,0v413.86
		c0,10.269,8.324,18.593,18.593,18.593h168.034c10.268,0,18.592-8.324,18.592-18.593V33.086
		c0.018-10.269-8.291-18.606-18.561-18.625C387.023,14.461,387.014,14.461,387.004,14.461z"/>
	<path fill="#3A539B" d="M283.445,16.31h26.578c1.689,0,3.058,1.368,3.058,3.057v0.521c0,1.688-1.368,3.057-3.058,3.057h-26.578
		c-1.688,0-3.056-1.369-3.056-3.057v-0.521C280.39,17.678,281.758,16.31,283.445,16.31z"/>
	<circle fill="#E6E8EC" cx="321.792" cy="19.626" r="3.768"/>
	
		<linearGradient id="SVGID_1_" gradientUnits="userSpaceOnUse" x1="-98.8862" y1="2573.248" x2="-98.8862" y2="2573.4539" gradientTransform="matrix(1 0 0 -1 230.77 2805.8203)">
		<stop  offset="0" style="stop-color:#808080;stop-opacity:0.25"/>
		<stop  offset="0.54" style="stop-color:#808080;stop-opacity:0.12"/>
		<stop  offset="1" style="stop-color:#808080;stop-opacity:0.1"/>
	</linearGradient>
	<path fill="url(#SVGID_1_)" d="M131.453,232.366c0.231,0.224,0.583,0.269,0.862,0.11
		C132.024,232.481,131.734,232.444,131.453,232.366z"/>
	
		<linearGradient id="SVGID_2_" gradientUnits="userSpaceOnUse" x1="-111.1411" y1="2464.46" x2="-111.1411" y2="2777.749" gradientTransform="matrix(1 0 0 -1 230.77 2805.8203)">
		<stop  offset="0" style="stop-color:#808080;stop-opacity:0.25"/>
		<stop  offset="0.54" style="stop-color:#808080;stop-opacity:0.12"/>
		<stop  offset="1" style="stop-color:#808080;stop-opacity:0.1"/>
	</linearGradient>
	<path fill="url(#SVGID_2_)" d="M226.102,75.186c-1.666-0.489-4.035-1.288-6.902-2.291c2.975-3.886,5.148-8.323,6.396-13.056
		l-0.243,0.094c0.077-0.291,0.165-0.575,0.243-0.868c-5.479,2.259-11.555-1.58-15.416-6.485c-3.864-4.904-6.494-11.01-10.719-15.536
		c-1.766-1.792-3.664-3.448-5.681-4.952c-1.247-0.979-2.598-1.998-4.123-2.046c-2.463-0.07-4.398,2.369-6.776,3.104
		c-1.569,0.357-3.203,0.298-4.74-0.174c-6.136-1.43-12.052-4.061-18.284-4.739c-3.349-0.421-6.751-0.034-9.921,1.129
		c-3.158,1.217-4.581,3.626-7.109,5.529c-2.74,2.069-8.198,2.021-11.428,2.369c-3.917,0.45-7.86,0.616-11.801,0.498
		c-2.265-0.205-4.549-0.12-6.792,0.253c-4.691,1.043-8.46,4.818-11.975,8.451c-0.963,0.83-1.654,1.931-1.982,3.159
		c-0.043,0.347-0.043,0.697,0,1.043c-0.036,0.944,0.125,1.886,0.474,2.765c1.062,3.266,2.578,6.365,4.502,9.209
		c1.437,2.086,3.104,4.045,3.948,6.509c0.388,1.214,0.594,2.478,0.608,3.753c-0.044,1.353-0.184,2.701-0.417,4.036
		c-0.622,3.678-1.642,7.276-3.042,10.733c-0.742,1.833-1.58,3.657-1.776,5.664c-0.024,0.398-0.024,0.8,0,1.2
		c-0.238,6.185,5.93,10.647,7.108,16.8c0.093,0.509,0.151,1.022,0.174,1.54c-0.134,3.839-2.291,7.592-5.466,9.076
		c0.277,0.109,0.561,0.205,0.845,0.307c-0.273,0.174-0.555,0.333-0.845,0.475c0.576,0.222,1.169,0.411,1.77,0.584
		c-3.632,3.183-6.681,6.973-9.012,11.201c-10.631,20.165-83.092,59.721-83.092,59.721s0.41,0.229,1.073,0.624
		c-0.269,0.166-0.552,0.355-0.868,0.568c-6.271,4.233-20.995,16.586-7.686,32.163c0,0,10.387-16.626,17.661-23.695
		c0.332-0.317,0.648-0.608,0.956-0.885c0.328,0.503,0.433,1.122,0.284,1.706L73.7,177.573c0,0,16.934-12.021,21.657-14.737
		c1.627-0.932,5.774-3.523,10.735-4.668l-0.554,0.244c1.781-0.497,3.618-0.763,5.466-0.789c8.436,0.134,17.567,6.397,20.583,31.207
		c4.036,33.222,2.166,39.208,0.87,40.029c-0.161-0.013-0.32-0.041-0.474-0.087c0.038,0.036,0.081,0.068,0.126,0.095
		c-0.178-0.012-0.352-0.042-0.522-0.095c0.186,0.176,0.45,0.242,0.696,0.174c0.178,0.052,0.368,0.03,0.529-0.063l0,0l0,0
		c0.182,0,0.394,0,0.64,0c0,0.301-0.047,0.617-0.072,0.925c-0.063,0-0.378,0.182,0,0.206l0,0c-0.094,1.871-0.086,3.949,0,6.041
		c-4.194,0.237-8.38,0.49-12.052,0.72l0.332-1.762l0.15-0.791c3.214-0.259,6.27-1.215,6.627-3.869
		c0.79-5.813-7.108-8.917-13.784-9.305c-6.675-0.387-46.862,2.33-46.862,2.33s-6.027,7.899,13.08,10.354
		c0.569,0.3,1.16,0.633,1.761,0.979c7.481,4.329,17.639,12.291,22.496,16.217l0.679,0.545l-2.179,1.761
		c11.847,2.718,23.237,48.481,29.532,69.42c6.295,20.939,20.086,20.166,31.508,17.069c10.702-2.915,12.069-34.421,12.194-38.379
		c0-0.27,0-0.403,0-0.403l19.028,23.782l1.446,1.81c0.56,0.292,1.106,0.569,1.643,0.829c14.414,6.959,30.338-6.373,25.805-21.539
		c-4.573-15.323-11.684-37.969-16.422-47.541c-3.95-8.018-9.09-21.327-12.202-29.684c0.402-0.165,0.795-0.355,1.176-0.569
		c0,0-0.072-0.371-0.198-1.058l0.198-0.103c0,0-4.582-24.131-4.835-41.263c0-0.3,0-0.6,0-0.9c0-0.3,0-0.37,0-0.56
		c3.445-0.791,5.625-1.106,5.625-1.106l0.063-0.742l-0.402,0.087l1.91-22.227c0,0,7.03-15.158,1.651-21.477
		c-1.638-1.855-2.731-4.127-3.16-6.563c-0.899-5.814,0-15.49,12.535-23.538c19.296-12.409,26.783-22.496,26.783-22.496
		S237.919,78.677,226.102,75.186z M187.778,90.603V80.335c3.579-0.174,7.235,0.245,10.83,0c1.767-0.125,3.519-0.42,5.229-0.885
		l0.868,0.608C199.446,84.155,193.774,87.689,187.778,90.603z M133.074,251.584c1.412,0.995,2.834,2.029,4.233,3.064
		c0.868,5.063,1.635,8.641,1.689,8.885C137.399,259.375,135.417,255.374,133.074,251.584z"/>
	<path fill="#FFBDC6" d="M164.004,245.1l-0.853,4.627l-0.656,3.54l-1.192,6.477l-11.564,8.096c0,0-1.042-0.893-2.764-2.298
		c-4.74-3.902-14.699-11.849-22.014-16.113c-1.881-1.199-3.916-2.137-6.049-2.788L164.004,245.1z"/>
	<path opacity="0.1" enable-background="new    " d="M164.004,245.1l-0.853,4.627c-2.551,0.14-5.108,0.007-7.63-0.395l-26.982,0.387
		c-1.271-0.078-2.464-0.173-3.578-0.291c-1.881-1.199-3.916-2.137-6.049-2.788L164.004,245.1z"/>
	<path fill="#474463" d="M155.521,248.543c0,0,13.481,2.314,14.271-3.443c0.79-5.759-6.941-8.87-13.489-9.258
		c-6.549-0.387-45.867,2.314-45.867,2.314s-6.935,9.249,18.11,10.798L155.521,248.543z"/>
	<path opacity="0.1" enable-background="new    " d="M164.004,245.1l-0.853,4.627l-0.656,3.54l-1.192,6.477l-11.564,8.096
		c0,0-1.042-0.893-2.764-2.298c-4.74-3.902-14.699-11.849-22.014-16.113c-1.881-1.199-3.916-2.137-6.049-2.788L164.004,245.1z"/>
	<path opacity="0.1" enable-background="new    " d="M164.004,245.1l-0.853,4.627c-2.551,0.14-5.108,0.007-7.63-0.395l-26.982,0.387
		c-1.271-0.078-2.464-0.173-3.578-0.291c-1.881-1.199-3.916-2.137-6.049-2.788L164.004,245.1z"/>
	<path opacity="0.1" enable-background="new    " d="M155.521,248.527c0,0,13.49,2.306,14.264-3.477
		c0.776-5.782-6.943-8.862-13.49-9.248c-6.547-0.388-45.867,2.314-45.867,2.314s-6.935,9.248,18.111,10.789L155.521,248.527z"/>
	<rect x="114.472" y="58.535" fill="#474463" width="70.534" height="83.638"/>
	<rect x="114.472" y="58.915" opacity="0.1" enable-background="new    " width="70.534" height="83.638"/>
	<path fill="#FFBDC6" d="M31.806,201.713c-1.162,0.291-2.646,1.412-4.296,3.04c-7.11,7.038-17.29,23.554-17.29,23.554
		c-13.017-15.505,1.39-27.755,7.527-31.966c1.492-1.019,2.497-1.579,2.497-1.579L31.806,201.713z"/>
	<path fill="#FFBDC6" d="M163.23,84.932c0,0,3.466,24.28,15.418,30.063c11.95,5.781-15.418,16.587-15.418,16.587l-37.384-13.886
		c0,0,21.199-6.943,16.958-27.369L163.23,84.932z"/>
	<path fill="#FFBDC6" d="M123.145,231.009l-0.845,4.612l-0.688,3.554l-1.192,6.477l-11.563,8.088c0,0-1.043-0.884-2.764-2.29
		c-4.74-3.901-14.7-11.848-22.021-16.113c-1.88-1.201-3.916-2.139-6.049-2.788L123.145,231.009z"/>
	<path opacity="0.1" enable-background="new    " d="M123.145,231.009l-0.845,4.612c-2.551,0.138-5.108,0.006-7.631-0.396
		l-26.981,0.388c-1.271-0.08-2.472-0.174-3.586-0.293c-1.88-1.2-3.916-2.139-6.049-2.788L123.145,231.009z"/>
	<path fill="#474463" d="M114.669,234.476c0,0,13.491,2.307,14.257-3.467c0.766-5.775-6.934-8.871-13.49-9.259
		c-6.556-0.386-45.859,2.314-45.859,2.314s-6.943,9.25,18.111,10.798L114.669,234.476z"/>
	<path opacity="0.1" enable-background="new    " d="M121.612,239.175l-1.192,6.477l-11.563,8.088c0,0-1.043-0.884-2.764-2.29
		l15.291-12.542L121.612,239.175z"/>
	<path fill="#474463" d="M197.984,327.41c-0.529-0.261-1.06-0.529-1.581-0.79l-1.421-1.793l-18.649-23.648c0,0,0,0.142,0,0.411
		c-0.126,3.949-1.469,35.243-11.942,38.134c-11.176,3.08-24.659,3.854-30.804-16.958c-6.146-20.812-17.377-66.292-28.909-68.994
		l17.156-14.067c0,0,11.357,13.286,15.986,26.003c-0.174-0.791-8.018-37.439-1.58-43.924h56.277c0,0,8.688,24.746,14.644,37.005
		c4.637,9.517,11.594,32.021,16.074,47.249C227.674,321.075,212.091,334.353,197.984,327.41z"/>
	<path opacity="0.1" enable-background="new    " d="M196.38,228.693c-8.688,5.144-46.831,3.05-59.239,2.212l-3.38-0.245
		c-0.363,0,0.055-0.205,0.055-0.205l0.347-3.5l9.25-23.505l49.524-28.72c-1.003,3.025-1.336,7.654-1.256,12.954
		C191.909,204.714,196.38,228.693,196.38,228.693z"/>
	<path fill="#F2F1F2" d="M196.38,227.533c-8.688,5.142-46.831,3.048-59.239,2.211l-3.38-0.237l-0.562-0.048l0.616-0.157l3.049-0.789
		l6.548-26.208l49.524-28.712c-1.003,3.025-1.336,7.654-1.256,12.954C191.909,203.562,196.38,227.533,196.38,227.533z"/>
	<path opacity="0.1" enable-background="new    " d="M191.649,186.531c-10.071,2.322-32.235,9.139-40.75,25.592
		c-5.678,10.954-10.458,15.655-13.789,17.621l-3.382-0.237c0.023-0.067,0.041-0.135,0.056-0.205l3.049-0.789l6.548-26.208
		l49.523-28.712C191.909,176.603,191.57,181.231,191.649,186.531z"/>
	<path opacity="0.1" enable-background="new    " d="M20.243,194.776l11.563,6.937c-1.162,0.291-2.646,1.412-4.296,3.04
		c-0.964-2.813-7.014-6.737-9.763-8.412C19.239,195.338,20.243,194.776,20.243,194.776z"/>
	<path opacity="0.1" enable-background="new    " d="M131.667,229.958c-0.26,0.135-0.577,0.09-0.79-0.111
		C131.133,229.922,131.4,229.959,131.667,229.958z"/>
	<path fill="#FF748E" d="M157.835,113.454c0,0-10.41,1.152-17.733-6.557c0,0-30.804,8.87-41.238,28.91
		c-10.434,20.037-81.355,59.356-81.355,59.356s12.338,6.936,11.177,10.402l46.641-26.981c0,0,16.586-11.941,21.191-14.644
		c4.605-2.701,30.07-19.272,35.465,25.82c5.396,45.094,0,39.697,0,39.697s7.709,2.702,18.885-18.884
		c11.177-21.588,45.859-26.595,45.859-26.595l1.927-22.732c0,0,6.878-15.07,1.579-21.327c-1.605-1.851-2.673-4.106-3.087-6.522
		c-0.877-5.774,0-15.396,12.273-23.388c18.886-12.339,26.208-22.354,26.208-22.354s0.387-7.33-11.177-10.798
		s-58.583-22.353-58.583-22.353l-1.58,6.557l37.1,26.183c0,0-18.499,15.008-33.174,14.645
		C168.214,101.891,170.938,113.066,157.835,113.454z"/>
	<path opacity="0.1" enable-background="new    " d="M164.976,95.5c-0.913-3.09-1.625-6.233-2.134-9.415l-20.426,5.396
		c0.901,3.899,0.741,7.968-0.466,11.784C150.488,105.544,159.561,102.483,164.976,95.5L164.976,95.5z"/>
	<circle fill="#FFBDC6" cx="148.009" cy="80.888" r="21.966"/>
	<path opacity="0.1" enable-background="new    " d="M159.691,30.93c6.098,0.687,11.887,3.311,17.89,4.738
		c1.499,0.47,3.097,0.532,4.628,0.184c2.33-0.728,4.226-3.16,6.643-3.09c1.484,0,2.805,1.059,4.028,2.03
		c1.965,1.5,3.814,3.148,5.528,4.929c4.139,4.494,6.706,10.545,10.481,15.434c3.776,4.89,9.731,8.688,15.094,6.445
		c-3.648,14.218-15.6,25.046-28.529,25.932c-5.158,0.347-10.442-0.728-15.434,0.79c-1.244,0.506-2.556,0.824-3.894,0.947
		c-2.875,0-5.189-2.639-6.981-5.205c-4.204-6.035-7.528-12.891-12.26-18.396c-1.58-1.817-3.404-3.547-5.614-3.879
		c-2.212-0.331-4.243,0.72-6.209,1.738c-3.246,1.682-6.564,3.428-9.083,6.318c-2.52,2.892-4.108,7.188-3.065,11.059
		c0.561,2.101,1.84,3.996,1.863,6.192c0.047,3.498-3.049,6.065-3.657,9.479c-0.137,1.433-0.187,2.872-0.15,4.313
		c-0.268,4.676-3.325,8.506-6.516,11.444c-1.248,1.146-2.622,2.37-2.986,4.139c-0.245,1.201,0,2.48-0.158,3.697
		c-0.466,3.033-3.49,4.573-6.168,4.977c-3.128,0.454-6.321,0.076-9.258-1.099c3.745-1.777,6.051-6.809,5.183-11.327
		c-1.192-6.256-7.481-10.741-6.943-17.116c0.297-1.953,0.882-3.851,1.737-5.631c1.371-3.438,2.367-7.013,2.971-10.663
		c0.474-2.828,0.703-5.822-0.182-8.508c-0.79-2.455-2.44-4.398-3.838-6.468c-1.897-2.818-3.394-5.886-4.448-9.115
		c-0.384-0.953-0.531-1.985-0.425-3.009c0.306-1.227,0.982-2.329,1.935-3.159c3.435-3.611,7.109-7.37,11.712-8.396
		c2.198-0.372,4.432-0.459,6.652-0.261c3.858,0.125,7.721-0.039,11.556-0.49c3.159-0.371,8.498-0.315,11.176-2.369
		c2.495-1.92,3.902-4.313,6.976-5.529C153.057,30.858,156.403,30.489,159.691,30.93z"/>
	<path opacity="0.1" enable-background="new    " d="M171.903,257.793c0,0,12.717,25.054,8.862,32.754"/>
	<path opacity="0.1" enable-background="new    " d="M194.958,324.796l-18.625-23.617c0,0,0,0.142,0,0.411
		c0,0-1.073-7.646,2.472-5.08c7.773,5.625,20.205,14.843,20.474,16.43C199.548,314.527,196.758,320.87,194.958,324.796z"/>
	<g opacity="0.1">
		<path d="M168.624,101.891c0,0,1.58,6.508-3.507,9.763c7.82-1.335,8.167-7.426,7.898-10.071
			C171.564,101.814,170.094,101.918,168.624,101.891z"/>
		<path d="M22.17,193.616c0,0,70.912-39.311,81.354-59.35c7.464-14.384,25.457-23.009,35.015-26.736
			c-6.967,2.37-30.442,11.302-39.256,28.277c-10.403,20.037-81.356,59.356-81.356,59.356L22.17,193.616z"/>
		<path d="M182.431,98.825c12.069-3.751,23.602-13.119,23.602-13.119l-37.03-26.223l0.846-3.587l-3.546-1.422l-1.54,6.557
			l37.003,26.208C195.836,91.901,189.34,95.795,182.431,98.825z"/>
		<path d="M182.645,187.646c4.727-1.613,9.575-2.839,14.501-3.665l0.063-0.743C192.248,184.328,187.378,185.802,182.645,187.646z"/>
		<path d="M137.797,228.022h-0.34c-0.261,0.132-0.576,0.089-0.79-0.11c0.256,0.074,0.522,0.111,0.79,0.11
			c1.262-0.735,3.159-6.492-0.79-39.809c-4.249-35.544-20.971-32.771-30.117-28.68c9.351-2.575,22.218-0.348,25.875,30.22
			c3.989,33.315,2.085,39.074,0.79,39.809C134.859,229.501,136.449,228.965,137.797,228.022z"/>
		<path d="M133.214,229.57c-0.266,0.002-0.532-0.035-0.79-0.111C132.639,229.659,132.955,229.703,133.214,229.57z"/>
	</g>
	<path fill="#474463" d="M159.691,30.155c6.098,0.695,11.887,3.31,17.89,4.739c1.5,0.466,3.097,0.526,4.628,0.175
		c2.33-0.72,4.226-3.16,6.643-3.09c1.484,0.048,2.805,1.059,4.028,2.03c1.962,1.503,3.811,3.15,5.528,4.93
		c4.139,4.493,6.706,10.544,10.481,15.434c3.776,4.889,9.731,8.688,15.094,6.444c-3.648,14.218-15.6,25.047-28.529,25.932
		c-5.158,0.355-10.442-0.719-15.434,0.79c-1.243,0.509-2.555,0.829-3.894,0.947c-2.875,0-5.189-2.639-6.981-5.205
		c-4.204-6.034-7.528-12.883-12.26-18.388c-1.58-1.824-3.404-3.555-5.614-3.886c-2.212-0.332-4.243,0.727-6.209,1.745
		c-3.246,1.683-6.564,3.42-9.083,6.319c-2.52,2.898-4.108,7.18-3.065,11.058c0.561,2.102,1.84,3.996,1.863,6.192
		c0.047,3.508-3.049,6.066-3.657,9.479c-0.137,1.433-0.187,2.873-0.15,4.312c-0.268,4.677-3.325,8.499-6.516,11.445
		c-1.248,1.138-2.622,2.37-2.986,4.132c-0.245,1.208,0,2.479-0.158,3.704c-0.466,3.033-3.49,4.573-6.168,4.969
		c-3.128,0.462-6.324,0.084-9.258-1.098c3.745-1.771,6.051-6.81,5.183-11.319c-1.192-6.256-7.481-10.75-6.943-17.116
		c0.295-1.954,0.88-3.852,1.737-5.632c1.371-3.44,2.366-7.018,2.971-10.67c0.474-2.82,0.703-5.814-0.182-8.508
		c-0.79-2.448-2.44-4.399-3.838-6.469c-1.896-2.816-3.393-5.881-4.448-9.107c-0.383-0.957-0.529-1.991-0.425-3.017
		c0.316-1.211,0.991-2.298,1.935-3.12c3.435-3.61,7.109-7.362,11.712-8.396c2.198-0.365,4.433-0.45,6.652-0.254
		c3.858,0.121,7.721-0.043,11.556-0.49c3.159-0.37,8.498-0.323,11.176-2.369c2.495-1.911,3.902-4.312,6.976-5.529
		C153.055,30.116,156.401,29.733,159.691,30.155z"/>
	<circle fill="#FFFFFF" cx="304.4" cy="245.842" r="44.287"/>
	<path fill="#3ACC6C" d="M362.588,240.004c0,32.691-26.5,59.192-59.19,59.192c-32.691,0-59.192-26.501-59.192-59.192
		c0-32.689,26.501-59.19,59.192-59.19l0,0C336.088,180.813,362.588,207.314,362.588,240.004z M296.557,271.338l43.908-43.908
		c1.492-1.487,1.496-3.903,0.008-5.395c-0.004-0.003-0.004-0.006-0.008-0.008l-5.402-5.363c-1.483-1.489-3.895-1.494-5.384-0.011
		c-0.003,0.003-0.009,0.007-0.011,0.011l-35.813,35.813l-16.722-16.762c-1.493-1.486-3.907-1.486-5.401,0l-5.402,5.435
		c-1.487,1.494-1.487,3.909,0,5.403l24.824,24.816c1.488,1.492,3.904,1.496,5.396,0.009c0.002-0.003,0.004-0.007,0.006-0.009
		V271.338z"/>
</g>
</svg>
