<?xml version="1.0" encoding="utf-8"?>
<!-- Generator: Adobe Illustrator 16.0.0, SVG Export Plug-In . SVG Version: 6.00 Build 0)  -->
<!DOCTYPE svg PUBLIC "-//W3C//DTD SVG 1.1//EN" "http://www.w3.org/Graphics/SVG/1.1/DTD/svg11.dtd">
<svg version="1.1" id="Layer_1" xmlns="http://www.w3.org/2000/svg" xmlns:xlink="http://www.w3.org/1999/xlink" x="0px" y="0px"
	 width="83px" height="58px" viewBox="0 0 83 58" enable-background="new 0 0 83 58" xml:space="preserve">
<g opacity="0.8" enable-background="new    ">
	<path d="M36.584,21.985h-3.199v8.88h-1.306v-8.88h-3.192v-1.073h7.697V21.985z"/>
	<path d="M40.925,24.604c-0.191-0.032-0.399-0.048-0.622-0.048c-0.83,0-1.392,0.354-1.688,1.06v5.25H37.35v-7.396h1.23l0.021,0.854
		c0.415-0.661,1.002-0.991,1.764-0.991c0.246,0,0.433,0.032,0.561,0.096V24.604z"/>
	<path d="M46.38,30.865c-0.073-0.146-0.132-0.405-0.178-0.779c-0.588,0.61-1.29,0.916-2.105,0.916c-0.729,0-1.327-0.206-1.794-0.619
		c-0.468-0.412-0.701-0.935-0.701-1.568c0-0.771,0.293-1.368,0.879-1.795c0.585-0.426,1.408-0.639,2.471-0.639h1.23V25.8
		c0-0.442-0.133-0.794-0.396-1.056c-0.264-0.263-0.654-0.394-1.169-0.394c-0.451,0-0.829,0.114-1.135,0.342
		s-0.458,0.504-0.458,0.827h-1.271c0-0.369,0.131-0.726,0.393-1.07c0.263-0.344,0.618-0.616,1.066-0.816
		c0.449-0.2,0.943-0.301,1.48-0.301c0.852,0,1.52,0.213,2.003,0.639c0.483,0.427,0.733,1.014,0.752,1.761v3.404
		c0,0.679,0.087,1.219,0.26,1.62v0.109H46.38z M44.281,29.901c0.396,0,0.772-0.103,1.128-0.308s0.612-0.472,0.772-0.8v-1.518H45.19
		c-1.55,0-2.324,0.453-2.324,1.36c0,0.396,0.132,0.706,0.396,0.93S43.867,29.901,44.281,29.901z"/>
	<path d="M50.625,23.469l0.041,0.93c0.564-0.711,1.303-1.066,2.215-1.066c1.563,0,2.352,0.882,2.365,2.646v4.888h-1.265v-4.895
		c-0.005-0.533-0.126-0.928-0.366-1.183c-0.238-0.255-0.611-0.383-1.117-0.383c-0.41,0-0.77,0.109-1.08,0.328
		s-0.551,0.506-0.725,0.861v5.271h-1.265v-7.396H50.625z"/>
	<path d="M61.46,28.903c0-0.342-0.129-0.607-0.386-0.796c-0.258-0.189-0.707-0.353-1.348-0.489c-0.64-0.137-1.148-0.301-1.523-0.492
		c-0.377-0.191-0.654-0.419-0.834-0.684c-0.181-0.265-0.271-0.579-0.271-0.943c0-0.606,0.257-1.119,0.769-1.538
		c0.514-0.419,1.168-0.629,1.966-0.629c0.839,0,1.519,0.217,2.04,0.649c0.522,0.433,0.783,0.986,0.783,1.661h-1.271
		c0-0.347-0.146-0.645-0.441-0.896c-0.293-0.251-0.664-0.376-1.11-0.376c-0.46,0-0.82,0.101-1.08,0.301s-0.39,0.463-0.39,0.786
		c0,0.306,0.121,0.535,0.362,0.69s0.678,0.303,1.31,0.444c0.631,0.142,1.143,0.31,1.534,0.506s0.683,0.432,0.872,0.708
		c0.188,0.275,0.283,0.611,0.283,1.008c0,0.661-0.264,1.19-0.793,1.59c-0.529,0.398-1.215,0.598-2.058,0.598
		c-0.593,0-1.116-0.104-1.572-0.314s-0.813-0.502-1.069-0.879c-0.258-0.375-0.387-0.782-0.387-1.22h1.265
		c0.022,0.424,0.192,0.76,0.509,1.009c0.317,0.248,0.735,0.372,1.255,0.372c0.479,0,0.862-0.097,1.151-0.29
		C61.315,29.485,61.46,29.227,61.46,28.903z"/>
	<path d="M64.994,30.865v-6.419h-1.169v-0.978h1.169V22.71c0-0.793,0.212-1.406,0.636-1.839s1.022-0.649,1.798-0.649
		c0.291,0,0.581,0.038,0.868,0.115l-0.068,1.02c-0.214-0.041-0.442-0.062-0.684-0.062c-0.41,0-0.728,0.12-0.95,0.36
		c-0.223,0.239-0.335,0.584-0.335,1.031v0.782h1.579v0.978h-1.579v6.419H64.994z"/>
	<path d="M72.138,31.002c-1.003,0-1.818-0.329-2.447-0.988c-0.629-0.658-0.943-1.539-0.943-2.642V27.14
		c0-0.733,0.14-1.389,0.421-1.966c0.279-0.576,0.672-1.027,1.176-1.354c0.503-0.325,1.049-0.488,1.637-0.488
		c0.962,0,1.709,0.316,2.242,0.95s0.8,1.54,0.8,2.721v0.526h-5.011c0.018,0.729,0.231,1.318,0.64,1.768
		c0.407,0.448,0.926,0.673,1.555,0.673c0.446,0,0.825-0.091,1.135-0.273s0.581-0.424,0.813-0.725l0.772,0.602
		C74.307,30.525,73.377,31.002,72.138,31.002z M71.98,24.371c-0.511,0-0.938,0.186-1.285,0.557
		c-0.346,0.372-0.561,0.893-0.643,1.563h3.705v-0.096c-0.036-0.643-0.21-1.141-0.52-1.494C72.929,24.548,72.509,24.371,71.98,24.371
		z"/>
	<path d="M80.061,24.604c-0.191-0.032-0.398-0.048-0.622-0.048c-0.829,0-1.393,0.354-1.688,1.06v5.25h-1.265v-7.396h1.23
		l0.021,0.854c0.415-0.661,1.003-0.991,1.764-0.991c0.246,0,0.433,0.032,0.561,0.096V24.604z"/>
</g>
<path fill="#00CEC9" d="M0.953,9.035c0,0,9.757,4.128,21.223,0C33.641,4.907,33.641-1.514,44.648,3.073
	c0,0-21.416,3.669-19.192,26.142c2.222,22.473-2.681,22.932-8.943,27.059c-6.262,4.127,2.452-17.887-3.969-30.728
	C6.124,12.704,0.953,9.035,0.953,9.035z"/>
</svg>
