<?xml version="1.0" encoding="utf-8"?>
<!-- Generator: Adobe Illustrator 16.0.0, SVG Export Plug-In . SVG Version: 6.00 Build 0)  -->
<!DOCTYPE svg PUBLIC "-//W3C//DTD SVG 1.1//EN" "http://www.w3.org/Graphics/SVG/1.1/DTD/svg11.dtd">
<svg version="1.1" id="Layer_1" xmlns="http://www.w3.org/2000/svg" xmlns:xlink="http://www.w3.org/1999/xlink" x="0px" y="0px"
	 width="128px" height="36px" viewBox="0 0 128 36" enable-background="new 0 0 128 36" xml:space="preserve">
<g>
	<path fill="#B34C84" d="M14.191,34c-2.173,0-4.123-0.334-5.849-1.002c-1.727-0.67-3.19-1.651-4.387-2.945
		c-1.198-1.297-2.117-2.877-2.756-4.742c-0.642-1.865-0.961-4.01-0.961-6.434c0-2.423,0.368-4.566,1.106-6.433
		c0.738-1.866,1.748-3.446,3.029-4.74c1.281-1.296,2.785-2.278,4.512-2.946c1.727-0.669,3.578-1.002,5.557-1.002
		c1.196,0,2.283,0.09,3.258,0.271c0.975,0.183,1.824,0.384,2.549,0.607c0.723,0.223,1.321,0.459,1.796,0.709
		c0.473,0.25,0.808,0.433,1.002,0.543l-1.544,4.302c-0.669-0.417-1.624-0.814-2.863-1.19c-1.239-0.376-2.583-0.564-4.031-0.564
		c-1.254,0-2.423,0.217-3.51,0.648c-1.085,0.432-2.026,1.079-2.819,1.943c-0.794,0.863-1.415,1.95-1.859,3.258
		c-0.445,1.309-0.669,2.827-0.669,4.553c0,1.532,0.175,2.938,0.522,4.22c0.348,1.281,0.884,2.388,1.609,3.32
		c0.724,0.935,1.643,1.658,2.756,2.174c1.114,0.516,2.451,0.771,4.011,0.771c1.865,0,3.384-0.188,4.554-0.564
		c1.169-0.375,2.074-0.729,2.715-1.064l1.42,4.303c-0.334,0.223-0.788,0.445-1.357,0.67c-0.571,0.223-1.247,0.438-2.026,0.646
		c-0.78,0.209-1.658,0.375-2.631,0.502C16.348,33.938,15.304,34,14.191,34z"/>
	<path fill="#B34C84" d="M43.727,22.428c0,1.727-0.25,3.301-0.753,4.721c-0.501,1.42-1.212,2.632-2.13,3.634
		c-0.92,1.004-2.027,1.782-3.322,2.341c-1.293,0.556-2.721,0.834-4.281,0.834c-1.56,0-2.979-0.278-4.26-0.834
		c-1.281-0.559-2.381-1.337-3.3-2.341c-0.919-1.002-1.636-2.214-2.151-3.634c-0.516-1.42-0.773-2.994-0.773-4.721
		c0-1.726,0.257-3.292,0.773-4.7c0.515-1.406,1.239-2.611,2.172-3.613c0.933-1.002,2.04-1.776,3.322-2.318
		c1.28-0.543,2.687-0.814,4.218-0.814s2.945,0.271,4.24,0.814c1.295,0.542,2.402,1.316,3.322,2.318
		c0.918,1.002,1.635,2.207,2.151,3.613C43.468,19.136,43.727,20.702,43.727,22.428z M38.547,22.428c0-2.172-0.467-3.891-1.399-5.159
		c-0.935-1.266-2.236-1.9-3.907-1.9c-1.671,0-2.973,0.634-3.905,1.9c-0.933,1.269-1.399,2.987-1.399,5.159
		c0,2.2,0.466,3.941,1.399,5.222c0.933,1.282,2.234,1.921,3.905,1.921c1.671,0,2.973-0.639,3.907-1.921
		C38.08,26.369,38.547,24.628,38.547,22.428z"/>
	<path fill="#B34C84" d="M63.651,32.704c-0.976,0.251-2.241,0.509-3.802,0.774c-1.559,0.264-3.272,0.396-5.138,0.396
		c-1.755,0-3.224-0.252-4.408-0.752c-1.183-0.502-2.13-1.198-2.841-2.089c-0.71-0.892-1.219-1.957-1.523-3.196
		c-0.309-1.238-0.461-2.598-0.461-4.074V11.524h5.056v11.447c0,2.339,0.34,4.011,1.022,5.013s1.874,1.504,3.57,1.504
		c0.615,0,1.263-0.027,1.945-0.084c0.683-0.055,1.188-0.125,1.523-0.209V11.524h5.056V32.704z"/>
	<path fill="#B34C84" d="M79.316,16.079c-0.416-0.139-0.995-0.286-1.732-0.439c-0.74-0.152-1.596-0.229-2.57-0.229
		c-0.557,0-1.146,0.057-1.775,0.167c-0.625,0.111-1.063,0.209-1.313,0.292v17.504h-5.056V12.569c0.974-0.36,2.191-0.703,3.654-1.022
		c1.463-0.32,3.085-0.48,4.866-0.48c0.335,0,0.726,0.021,1.169,0.063c0.446,0.041,0.893,0.098,1.338,0.166
		c0.447,0.071,0.879,0.154,1.295,0.252c0.419,0.098,0.754,0.188,1.004,0.271L79.316,16.079z"/>
	<path fill="#B37B4C" d="M86.127,5.133c0,0.948-0.308,1.7-0.92,2.256c-0.614,0.558-1.338,0.837-2.173,0.837
		c-0.864,0-1.602-0.279-2.214-0.837c-0.614-0.556-0.919-1.308-0.919-2.256c0-0.974,0.305-1.739,0.919-2.297
		C81.433,2.279,82.17,2,83.034,2c0.835,0,1.559,0.279,2.173,0.836C85.819,3.394,86.127,4.159,86.127,5.133z"/>
	<rect x="80.527" y="11.524" fill="#B34C84" width="5.056" height="21.849"/>
	<path fill="#B34C84" d="M87.588,22.555c0-1.924,0.285-3.607,0.856-5.056c0.571-1.447,1.329-2.652,2.276-3.614
		c0.946-0.959,2.031-1.685,3.258-2.171s2.479-0.731,3.762-0.731c3.006,0,5.353,0.933,7.039,2.798
		c1.684,1.867,2.525,4.651,2.525,8.354c0,0.279-0.008,0.594-0.021,0.941s-0.035,0.661-0.063,0.939H92.809
		c0.14,1.755,0.76,3.111,1.861,4.073c1.099,0.96,2.691,1.44,4.781,1.44c1.227,0,2.347-0.11,3.363-0.334
		c1.016-0.223,1.817-0.459,2.402-0.709l0.669,4.135c-0.28,0.141-0.663,0.285-1.15,0.439c-0.487,0.152-1.044,0.293-1.67,0.418
		s-1.303,0.229-2.026,0.313c-0.723,0.084-1.463,0.125-2.214,0.125c-1.923,0-3.593-0.286-5.013-0.855
		c-1.422-0.571-2.592-1.365-3.511-2.381c-0.917-1.018-1.602-2.216-2.046-3.594C87.811,25.707,87.588,24.197,87.588,22.555z
		 M102.249,20.299c0-0.697-0.098-1.359-0.29-1.986c-0.196-0.625-0.482-1.169-0.857-1.629c-0.375-0.459-0.835-0.82-1.379-1.085
		s-1.191-0.397-1.941-0.397c-0.781,0-1.463,0.145-2.049,0.438c-0.584,0.292-1.079,0.676-1.481,1.149
		c-0.405,0.475-0.719,1.017-0.941,1.629c-0.223,0.613-0.376,1.24-0.46,1.881H102.249z"/>
	<path fill="#B34C84" d="M121.886,16.079c-0.419-0.139-0.995-0.286-1.735-0.439c-0.737-0.152-1.594-0.229-2.567-0.229
		c-0.558,0-1.151,0.057-1.776,0.167c-0.627,0.111-1.066,0.209-1.316,0.292v17.504h-5.056V12.569c0.976-0.36,2.194-0.703,3.655-1.022
		c1.463-0.32,3.084-0.48,4.869-0.48c0.334,0,0.723,0.021,1.168,0.063c0.447,0.041,0.893,0.098,1.339,0.166
		c0.443,0.071,0.876,0.154,1.294,0.252c0.417,0.098,0.752,0.188,1.002,0.271L121.886,16.079z"/>
</g>
</svg>
